<svg xmlns="http://www.w3.org/2000/svg" viewBox="0 0 359.33 392"><defs><style>.cls-1{fill:#627dfa;}</style></defs><title>i</title><g id="Capa_1" data-name="Capa 1"><path class="cls-1" d="M71.87,111.07a39.2,39.2,0,1,0-39.2-39.2A39.2,39.2,0,0,0,71.87,111.07Zm0-65.34A26.14,26.14,0,1,1,45.73,71.87,26.13,26.13,0,0,1,71.87,45.73Z"/><path class="cls-1" d="M1.31,265.25a6.52,6.52,0,0,0,5.22,2.62H32.67V352.8a6.53,6.53,0,0,0,6.53,6.53h65.33a6.53,6.53,0,0,0,6.54-6.53V267.87H137.2a6.53,6.53,0,0,0,6.53-6.54,6.61,6.61,0,0,0-.27-1.87l-39.2-130.67A6.54,6.54,0,0,0,98,124.13H45.73a6.55,6.55,0,0,0-6.26,4.66L.27,259.46A6.53,6.53,0,0,0,1.31,265.25Zm49.28-128H93.14l35.28,117.6H104.53A6.54,6.54,0,0,0,98,261.33v84.94H78.4V254.8H65.33v91.47H45.73V261.33a6.53,6.53,0,0,0-6.53-6.53H15.31Z"/><path class="cls-1" d="M333.2,71.87a39.2,39.2,0,1,0-39.2,39.2A39.2,39.2,0,0,0,333.2,71.87Zm-65.33,0A26.13,26.13,0,1,1,294,98,26.13,26.13,0,0,1,267.87,71.87Z"/><path class="cls-1" d="M228.67,169.87v91.46a6.53,6.53,0,0,0,6.53,6.54h19.6V352.8a6.53,6.53,0,0,0,6.53,6.53h65.34a6.53,6.53,0,0,0,6.53-6.53V267.87h19.6a6.53,6.53,0,0,0,6.53-6.54V169.87a45.78,45.78,0,0,0-45.73-45.74H274.4A45.78,45.78,0,0,0,228.67,169.87ZM274.4,137.2h39.2a32.71,32.71,0,0,1,32.67,32.67V254.8H333.2V176.4H320.13V346.27h-19.6V254.8H287.47v91.47h-19.6V176.4H254.8v78.4H241.73V169.87A32.71,32.71,0,0,1,274.4,137.2Z"/><rect class="cls-1" x="176.4" width="13.07" height="392"/></g></svg>