<svg xmlns="http://www.w3.org/2000/svg" viewBox="0 0 345.56 385.11"><defs><style>.cls-1{fill:#627dfa;}</style></defs><title>i</title><g id="Capa_1" data-name="Capa 1"><path class="cls-1" d="M274,188.59h26.79a11,11,0,0,0,11-11V150.82a11,11,0,0,0-11-11H274a11,11,0,0,0-11,11v26.79a11,11,0,0,0,11,11Zm.27-37.5h26.25v26.25H274.31ZM274,259.84h26.79a11,11,0,0,0,11-11V222.07a11,11,0,0,0-11-11H274a11,11,0,0,0-11,11v26.79a11,11,0,0,0,11,11Zm.27-37.5h26.25v26.25H274.31Zm-76.7-33.75h26.78a11,11,0,0,0,11-11V150.82a11,11,0,0,0-11-11H197.61a11,11,0,0,0-11,11v26.79a11,11,0,0,0,11,11Zm.27-37.5h26.25v26.25H197.88ZM71.52,279H44.73a11,11,0,0,0-11,11v26.79a11,11,0,0,0,11,11H71.52a11,11,0,0,0,11-11V290a11,11,0,0,0-11-11Zm-.27,37.5H45V290.25H71.25Zm.27-176.66H44.73a11,11,0,0,0-11,11v26.79a11,11,0,0,0,11,11H71.52a11,11,0,0,0,11-11V150.82a11,11,0,0,0-11-11Zm-.27,37.5H45V151.09H71.25Zm126.36,80.83h26.78a11,11,0,0,0,11-11V220.4a11,11,0,0,0-11-11H197.61a11,11,0,0,0-11,11v26.79a11,11,0,0,0,11,11Zm.27-37.5h26.25v26.25H197.88Zm119.52-195h-24v-8.6A17.12,17.12,0,0,0,276.24,0h-2.58a17.13,17.13,0,0,0-17.11,17.11v8.6H89v-8.6A17.13,17.13,0,0,0,71.9,0H69.32A17.13,17.13,0,0,0,52.21,17.11v8.6h-24A28.2,28.2,0,0,0,0,53.87v302A28.16,28.16,0,0,0,28.12,384H317.44a28.15,28.15,0,0,0,28.12-28.12v-302A28.19,28.19,0,0,0,317.4,25.71Zm-49.6-8.6a5.87,5.87,0,0,1,5.86-5.86h2.59a5.87,5.87,0,0,1,5.85,5.86v8.6H267.8Zm-204.33,0a5.86,5.86,0,0,1,5.85-5.86H71.9a5.87,5.87,0,0,1,5.86,5.86v8.6H63.47ZM334.31,355.88a16.89,16.89,0,0,1-16.87,16.87H28.12a16.89,16.89,0,0,1-16.87-16.87v0a28,28,0,0,0,16.91,5.66H256.23a28,28,0,0,0,19.91-8.25l58.17-58.17Zm-63.91-12.8a24.11,24.11,0,0,0,.68-5.67V299.86A12.85,12.85,0,0,1,283.92,287h37.55a24,24,0,0,0,5.67-.68Zm63.91-237H94.63a5.63,5.63,0,0,0,0,11.25H334.31V262.93a12.85,12.85,0,0,1-12.84,12.84H283.92a24.12,24.12,0,0,0-24.09,24.09v37.55A12.85,12.85,0,0,1,247,350.25H28.16a16.93,16.93,0,0,1-16.91-16.91v-216H72.13a5.63,5.63,0,1,0,0-11.25H11.25V53.87A16.93,16.93,0,0,1,28.16,37H52.21V53.5A17.13,17.13,0,0,0,69.32,70.6a5.63,5.63,0,0,0,0-11.25,5.87,5.87,0,0,1-5.86-5.85V37H256.55V53.5a17.13,17.13,0,0,0,17.11,17.1,5.63,5.63,0,1,0,0-11.25,5.87,5.87,0,0,1-5.86-5.85V37h49.6a16.92,16.92,0,0,1,16.91,16.91ZM71.52,209.42H44.73a11,11,0,0,0-11,11v26.79a11,11,0,0,0,11,11H71.52a11,11,0,0,0,11-11V220.4a11,11,0,0,0-11-11Zm-.27,37.5H45V220.67H71.25Zm49.92-58.33H148a11,11,0,0,0,11-11V150.82a11,11,0,0,0-11-11H121.17a11,11,0,0,0-11,11v26.79a11,11,0,0,0,11,11Zm.27-37.5h26.25v26.25H121.44ZM197.87,316.5a5.62,5.62,0,0,0-11.24.27,11,11,0,0,0,11,11h26.78a11,11,0,0,0,11-11V290a11,11,0,0,0-11-11H197.61a11,11,0,0,0-11,11v7.73a5.63,5.63,0,0,0,11.25,0v-7.46h26.25V316.5Zm-76.7-58.33H148a11,11,0,0,0,11-11V220.4a11,11,0,0,0-11-11H121.17a11,11,0,0,0-11,11v26.79a11,11,0,0,0,11,11Zm.27-37.5h26.25v26.25H121.44Zm-.27,107.08H148a11,11,0,0,0,11-11V290a11,11,0,0,0-11-11H121.17a11,11,0,0,0-11,11v26.79a11,11,0,0,0,11,11Zm.27-37.5h26.25V316.5H121.44Zm0,0"/></g></svg>