<svg xmlns="http://www.w3.org/2000/svg" viewBox="0 0 447.72 293.81"><defs><style>.cls-1{fill:#627dfa;}</style></defs><title>i</title><g id="Capa_1" data-name="Capa 1"><path class="cls-1" d="M7,258.84a7,7,0,0,1-7-7V6.94A7,7,0,0,1,7,0H370.77a7,7,0,1,1,0,14H14v237.9a7,7,0,0,1-7,7Zm0,0"/><path class="cls-1" d="M104.92,293.81a42,42,0,1,1,42-42,42,42,0,0,1-42,42Zm0-69.95a28,28,0,1,0,28,28,28,28,0,0,0-28-28Zm0,0"/><path class="cls-1" d="M104.92,272.83a21,21,0,1,1,21-21,21,21,0,0,1-21,21Zm0-28a7,7,0,1,0,7,7,7,7,0,0,0-7-7Zm0,0"/><path class="cls-1" d="M363.73,293.81a42,42,0,1,1,42-42,42,42,0,0,1-42,42Zm0-69.95a28,28,0,1,0,28,28,28,28,0,0,0-28-28Zm0,0"/><path class="cls-1" d="M363.73,272.83a21,21,0,1,1,21-21,21,21,0,0,1-21,21Zm0-28a7,7,0,1,0,7,7,7,7,0,0,0-7-7Zm0,0"/><path class="cls-1" d="M440.72,258.84a7,7,0,0,1-7-7V164.4l-25.19-18.9a7,7,0,0,1-2.44-3.37L386.71,84h-72a7,7,0,0,1,0-14h77a7,7,0,0,1,6.63,4.78l20.3,60.87,26.24,19.68a7,7,0,0,1,2.79,5.6v90.94a7,7,0,0,1-7,7Zm0,0"/><path class="cls-1" d="M391.73,146.9h-56a7,7,0,0,1,0-14h56a7,7,0,0,1,0,14Zm0,0"/><path class="cls-1" d="M440.72,237.86h-49a7,7,0,1,1,0-14h49a7,7,0,1,1,0,14Zm0,0"/><path class="cls-1" d="M440.72,258.84h-42a7,7,0,0,1,0-14h42a7,7,0,1,1,0,14Zm0,0"/><path class="cls-1" d="M440.72,174.89h-21a7,7,0,1,1,0-14h21a7,7,0,1,1,0,14Zm0,0"/><path class="cls-1" d="M419.73,202.87a7,7,0,0,1-7-7v-28a7,7,0,0,1,14,0v28a7,7,0,0,1-7,7Zm0,0"/><path class="cls-1" d="M440.72,202.87h-21a7,7,0,1,1,0-14h21a7,7,0,1,1,0,14Zm0,0"/><path class="cls-1" d="M328.76,258.84h-14a7,7,0,1,1,0-14h14a7,7,0,0,1,0,14Zm0,0"/><path class="cls-1" d="M335.77,105a7,7,0,0,1,0-14l42,0h0a7,7,0,0,1,0,14Zm0,0"/><path class="cls-1" d="M335.76,146.9a7,7,0,0,1-7-7V98a7,7,0,0,1,14,0v41.92a7,7,0,0,1-7,7Zm0,0"/><path class="cls-1" d="M69.93,258.84H7a7,7,0,1,1,0-14H69.93a7,7,0,1,1,0,14Zm0,0"/><path class="cls-1" d="M314.75,258.84H139.9a7,7,0,0,1,0-14H314.75a7,7,0,0,1,0,14Zm0,0"/><path class="cls-1" d="M440.72,84a7,7,0,0,1-7-7,63,63,0,0,0-63-63,7,7,0,0,1,0-14,77.05,77.05,0,0,1,77,77,7,7,0,0,1-7,7Zm0,0"/><path class="cls-1" d="M440.72,84h-49a7,7,0,0,1,0-14h49a7,7,0,1,1,0,14Zm0,0"/><path class="cls-1" d="M314.75,258.84a7,7,0,0,1-7-7V77a7,7,0,1,1,14,0V251.84a7,7,0,0,1-7,7Zm0,0"/><path class="cls-1" d="M265.83,258.84h-77a7,7,0,0,1-7-7V105a7,7,0,0,1,7-7h77a7,7,0,0,1,7,7V251.84a7,7,0,0,1-7,7Zm-70-14h63V112h-63Zm0,0"/><path class="cls-1" d="M391.73,146.9a7,7,0,0,1-6.63-4.78l-14-42a7,7,0,0,1,13.27-4.43l14,42a7,7,0,0,1-4.42,8.85,7.21,7.21,0,0,1-2.22.36Zm0,0"/><path class="cls-1" d="M167.89,41.92a7,7,0,0,1,0-14,21,21,0,0,0,21-21,7,7,0,0,1,14,0,35,35,0,0,1-35,35Zm0,0"/><path class="cls-1" d="M167.89,41.92H7a7,7,0,1,1,0-14H167.89a7,7,0,1,1,0,14Zm0,0"/><path class="cls-1" d="M42,41.92a7,7,0,0,1-7-7v-28a7,7,0,0,1,14,0v28a7,7,0,0,1-7,7Zm0,0"/><path class="cls-1" d="M77,41.92a7,7,0,0,1-7-7v-28a7,7,0,0,1,14,0v28a7,7,0,0,1-7,7Zm0,0"/><path class="cls-1" d="M111.93,41.92a7,7,0,0,1-7-7v-28a7,7,0,0,1,14,0v28a7,7,0,0,1-7,7Zm0,0"/><path class="cls-1" d="M146.91,41.92a7,7,0,0,1-7-7v-28a7,7,0,0,1,14,0v28a7,7,0,0,1-7,7Zm0,0"/><path class="cls-1" d="M139.92,167.88H56a7,7,0,0,1-7-7V105a7,7,0,0,1,7-7h83.93a7,7,0,0,1,7,7v55.93a7,7,0,0,1-7,7ZM63,153.89h70V112H63Zm0,0"/><path class="cls-1" d="M210,181.9a7,7,0,1,1-.08-14H210a7,7,0,0,1,0,14Zm0,0"/></g></svg>