<svg xmlns="http://www.w3.org/2000/svg" viewBox="0 0 842.34 842.34"><defs><style>.cls-1{fill:#161616;}.cls-2,.cls-3{fill:#627dfa;}.cls-2{opacity:0.47;}.cls-4{fill:#fff;}</style></defs><title>i</title><g id="Capa_1" data-name="Capa 1"><path class="cls-1" d="M158.52,99.94H720.16a15.19,15.19,0,0,1,15.19,15.19v541a15.19,15.19,0,0,1-15.19,15.19H158.51a15.18,15.18,0,0,1-15.18-15.18v-541A15.19,15.19,0,0,1,158.52,99.94Z"/><rect class="cls-2" x="364.41" y="360.64" width="156.83" height="48.89"/><rect class="cls-3" x="338.56" y="360.64" width="48.9" height="48.89" rx="10.1"/><rect class="cls-3" x="496.79" y="360.64" width="48.9" height="48.89" rx="10.1"/><path class="cls-4" d="M377.36,410.79h-28.7a11.38,11.38,0,0,1-11.36-11.36V370.74a11.38,11.38,0,0,1,11.36-11.37h28.7a11.38,11.38,0,0,1,11.36,11.37v28.69A11.38,11.38,0,0,1,377.36,410.79Zm-28.7-48.89a8.84,8.84,0,0,0-8.83,8.84v28.69a8.84,8.84,0,0,0,8.83,8.83h28.7a8.84,8.84,0,0,0,8.83-8.83V370.74a8.84,8.84,0,0,0-8.83-8.84Z"/><path class="cls-4" d="M535.58,410.79H506.89a11.37,11.37,0,0,1-11.36-11.36V370.74a11.37,11.37,0,0,1,11.36-11.37h28.69A11.38,11.38,0,0,1,547,370.74v28.69A11.38,11.38,0,0,1,535.58,410.79ZM506.89,361.9a8.84,8.84,0,0,0-8.83,8.84v28.69a8.84,8.84,0,0,0,8.83,8.83h28.69a8.84,8.84,0,0,0,8.84-8.83V370.74a8.84,8.84,0,0,0-8.84-8.84Z"/><rect class="cls-3" x="512.93" y="133.03" width="65.49" height="65.49" rx="13.53"/><path class="cls-3" d="M646,133h38.43A13.53,13.53,0,0,1,698,146.56V185a13.53,13.53,0,0,1-13.53,13.53H646A13.52,13.52,0,0,1,632.48,185V146.55A13.53,13.53,0,0,1,646,133Z"/><path class="cls-4" d="M564.89,199.78H526.46A14.81,14.81,0,0,1,511.67,185V146.55a14.81,14.81,0,0,1,14.79-14.79h38.43a14.82,14.82,0,0,1,14.8,14.79V185A14.82,14.82,0,0,1,564.89,199.78Zm-38.43-65.49a12.28,12.28,0,0,0-12.26,12.26V185a12.27,12.27,0,0,0,12.26,12.26h38.43A12.28,12.28,0,0,0,577.16,185V146.55a12.28,12.28,0,0,0-12.27-12.26Z"/><path class="cls-4" d="M684.44,199.78H646A14.82,14.82,0,0,1,631.21,185V146.55A14.82,14.82,0,0,1,646,131.76h38.43a14.82,14.82,0,0,1,14.8,14.79V185A14.82,14.82,0,0,1,684.44,199.78ZM646,134.29a12.29,12.29,0,0,0-12.27,12.26V185A12.28,12.28,0,0,0,646,197.25h38.43A12.27,12.27,0,0,0,696.7,185V146.55a12.28,12.28,0,0,0-12.26-12.26Z"/><polygon class="cls-4" points="532.81 165.77 553.56 183.54 553.56 148 532.81 165.77"/><polygon class="cls-4" points="679.17 165.77 658.43 148 658.43 183.54 679.17 165.77"/><path class="cls-4" d="M196.93,184.92v-26h7.87l4.72,17.75,4.67-17.75h7.88v26h-4.88V164.44L212,184.92H207l-5.15-20.48v20.48Z"/><path class="cls-4" d="M251,184.92h-5.72L243,179h-10.4l-2.15,5.91h-5.57l10.13-26h5.56Zm-9.67-10.29L237.7,165l-3.51,9.66Z"/><path class="cls-4" d="M253.85,184.92v-26h11.07a18.85,18.85,0,0,1,6.06.7,5.94,5.94,0,0,1,3,2.5,7.46,7.46,0,0,1,1.14,4.1,6.92,6.92,0,0,1-1.72,4.83,8.22,8.22,0,0,1-5.15,2.41,12.22,12.22,0,0,1,2.82,2.18,30.92,30.92,0,0,1,3,4.23l3.18,5.07H271l-3.8-5.66a35.75,35.75,0,0,0-2.77-3.82,3.86,3.86,0,0,0-1.58-1.08,8.43,8.43,0,0,0-2.64-.3h-1.07v10.86Zm5.26-15H263a20.24,20.24,0,0,0,4.72-.32,2.83,2.83,0,0,0,1.47-1.1,3.36,3.36,0,0,0,.54-2,3.12,3.12,0,0,0-.7-2.12,3.21,3.21,0,0,0-2-1c-.43-.06-1.71-.09-3.83-.09h-4.11Z"/><path class="cls-4" d="M296.14,175.36l5.09,1.61a11.35,11.35,0,0,1-3.89,6.33,12.27,12.27,0,0,1-15.44-1.47q-3.33-3.54-3.33-9.69,0-6.49,3.35-10.09a11.48,11.48,0,0,1,8.82-3.59,10.83,10.83,0,0,1,7.76,2.82,10.37,10.37,0,0,1,2.67,4.79L296,167.32a5.48,5.48,0,0,0-1.92-3.2,5.54,5.54,0,0,0-3.56-1.17,5.91,5.91,0,0,0-4.7,2.08q-1.8,2.07-1.8,6.72c0,3.29.59,5.64,1.78,7a5.75,5.75,0,0,0,4.61,2.1,5.23,5.23,0,0,0,3.6-1.33A7.75,7.75,0,0,0,296.14,175.36Z"/><path class="cls-4" d="M305.33,184.92v-26h5.25v10.24h10.3V158.9h5.26v26h-5.26V173.55h-10.3v11.37Z"/><path class="cls-4" d="M357.42,180.29v4.63H339.93a11.9,11.9,0,0,1,1.71-5,32.75,32.75,0,0,1,5.6-6.24,36.28,36.28,0,0,0,4.14-4.26,5.5,5.5,0,0,0,1-3.06,3.44,3.44,0,0,0-.9-2.56,3.8,3.8,0,0,0-5,0,4.9,4.9,0,0,0-1.07,3.12l-5-.49q.45-4.12,2.79-5.91a9.34,9.34,0,0,1,5.86-1.8,8.46,8.46,0,0,1,6,2.08,6.81,6.81,0,0,1,2.21,5.17,9.18,9.18,0,0,1-.63,3.34,13.66,13.66,0,0,1-2,3.33,30.67,30.67,0,0,1-3.27,3.32c-1.57,1.45-2.57,2.41-3,2.88a8.41,8.41,0,0,0-1,1.38Z"/><path class="cls-4" d="M369.22,158.79a7.09,7.09,0,0,1,5.91,2.7q2.55,3.19,2.54,10.6t-2.56,10.62a7.09,7.09,0,0,1-5.89,2.66,7.43,7.43,0,0,1-6.12-2.92q-2.34-2.92-2.33-10.41t2.56-10.58A7.09,7.09,0,0,1,369.22,158.79Zm0,4.14a2.45,2.45,0,0,0-1.61.58,3.8,3.8,0,0,0-1.1,2.06,28.19,28.19,0,0,0-.52,6.52,28.75,28.75,0,0,0,.46,6.29,4.43,4.43,0,0,0,1.17,2.29,2.58,2.58,0,0,0,3.22,0,3.94,3.94,0,0,0,1.1-2.07,28.38,28.38,0,0,0,.52-6.5,28,28,0,0,0-.47-6.29,4.55,4.55,0,0,0-1.16-2.29A2.43,2.43,0,0,0,369.22,162.93Z"/><path class="cls-4" d="M397.51,180.29v4.63H380a12.19,12.19,0,0,1,1.71-5,32.89,32.89,0,0,1,5.61-6.24,35.88,35.88,0,0,0,4.13-4.26,5.5,5.5,0,0,0,1-3.06,3.48,3.48,0,0,0-.89-2.56,3.36,3.36,0,0,0-2.48-.9,3.29,3.29,0,0,0-2.48.94,4.84,4.84,0,0,0-1.07,3.12l-5-.49c.29-2.75,1.23-4.72,2.79-5.91a9.32,9.32,0,0,1,5.86-1.8,8.5,8.5,0,0,1,6.05,2.08,6.84,6.84,0,0,1,2.2,5.17,9,9,0,0,1-.63,3.34,13.66,13.66,0,0,1-2,3.33,30.67,30.67,0,0,1-3.27,3.32c-1.57,1.45-2.57,2.41-3,2.88a8,8,0,0,0-1,1.38Z"/><path class="cls-4" d="M409.32,158.79a7.11,7.11,0,0,1,5.91,2.7q2.53,3.19,2.53,10.6c0,4.92-.84,8.46-2.55,10.62a7.11,7.11,0,0,1-5.89,2.66,7.44,7.44,0,0,1-6.13-2.92q-2.32-2.92-2.32-10.41t2.55-10.58A7.09,7.09,0,0,1,409.32,158.79Zm0,4.14a2.46,2.46,0,0,0-1.62.58,3.8,3.8,0,0,0-1.1,2.06,28.77,28.77,0,0,0-.52,6.52,27.94,27.94,0,0,0,.47,6.29,4.43,4.43,0,0,0,1.16,2.29,2.52,2.52,0,0,0,1.61.56,2.5,2.5,0,0,0,1.61-.57,3.94,3.94,0,0,0,1.1-2.07,27.81,27.81,0,0,0,.52-6.5,28,28,0,0,0-.47-6.29,4.4,4.4,0,0,0-1.16-2.29A2.43,2.43,0,0,0,409.32,162.93Z"/><path class="cls-4" d="M256.42,269V245.89h7l4.2,15.78,4.15-15.78h7V269h-4.34V250.82L269.83,269h-4.49l-4.58-18.21V269Z"/><path class="cls-4" d="M282.52,257.6a14.8,14.8,0,0,1,1.06-5.93,10.68,10.68,0,0,1,2.16-3.17,9.12,9.12,0,0,1,3-2.09,12.69,12.69,0,0,1,5-.91,10.89,10.89,0,0,1,8.18,3.17c2,2.12,3.07,5.06,3.07,8.82s-1,6.66-3.05,8.77a12.17,12.17,0,0,1-16.35,0Q282.53,263.12,282.52,257.6Zm4.82-.16a8.72,8.72,0,0,0,1.81,6,6.25,6.25,0,0,0,9.2,0c1.19-1.34,1.79-3.36,1.79-6s-.58-4.63-1.75-5.93a5.87,5.87,0,0,0-4.63-2,5.94,5.94,0,0,0-4.65,2Q287.34,253.45,287.34,257.44Z"/><path class="cls-4" d="M349.1,269V249.81h-6.86v-3.92h18.38v3.92h-6.85V269Z"/><path class="cls-4" d="M363.46,245.89h4.67v12.53a25.13,25.13,0,0,0,.18,3.87,3.75,3.75,0,0,0,1.42,2.28,5,5,0,0,0,3.09.86,4.73,4.73,0,0,0,3-.81,3.26,3.26,0,0,0,1.21-2,25.46,25.46,0,0,0,.21-3.93v-12.8h4.67V258a31.46,31.46,0,0,1-.38,5.89,6.56,6.56,0,0,1-1.4,2.9,7,7,0,0,1-2.72,1.89,11.79,11.79,0,0,1-4.45.7,13,13,0,0,1-5-.76,7.21,7.21,0,0,1-2.7-2,6.42,6.42,0,0,1-1.31-2.57,27.68,27.68,0,0,1-.46-5.87Z"/><path class="cls-4" d="M417.28,269l-5.53-23.14h4.78L420,261.78l4.23-15.89h5.56l4.05,16.16,3.56-16.16h4.7L436.49,269h-4.95l-4.61-17.3L422.35,269Z"/><path class="cls-4" d="M444.65,269V245.89H461.8v3.92H449.32v5.12h11.62v3.9H449.32v6.3h12.92V269Z"/><path class="cls-4" d="M504.65,269V249.81h-6.86v-3.92h18.38v3.92h-6.85V269Z"/><path class="cls-4" d="M519,269V245.89h4.67V255h9.15v-9.11h4.67V269h-4.67V258.91H523.7V269Z"/><path class="cls-4" d="M580.48,269V245.89h15.86v3.92H585.15v5.47h9.66v3.92h-9.66V269Z"/><path class="cls-4" d="M599.61,269V245.89h9.83a16.67,16.67,0,0,1,5.39.63,5.27,5.27,0,0,1,2.69,2.21,6.72,6.72,0,0,1,1,3.65,6.19,6.19,0,0,1-1.53,4.3,7.39,7.39,0,0,1-4.57,2.14,10.82,10.82,0,0,1,2.5,1.94,26.88,26.88,0,0,1,2.66,3.75l2.82,4.52h-5.59l-3.37-5a34.46,34.46,0,0,0-2.46-3.4,3.55,3.55,0,0,0-1.41-1,7.8,7.8,0,0,0-2.35-.26h-1V269Zm4.67-13.35h3.46a17.72,17.72,0,0,0,4.2-.29,2.51,2.51,0,0,0,1.31-1,3.09,3.09,0,0,0,.47-1.74,2.6,2.6,0,0,0-2.39-2.79c-.37-.06-1.51-.08-3.4-.08h-3.65Z"/><path class="cls-4" d="M644.52,261.5l4.55-.44a5.53,5.53,0,0,0,1.66,3.36,5.05,5.05,0,0,0,3.38,1.07,5.22,5.22,0,0,0,3.4-.95,2.83,2.83,0,0,0,1.15-2.23,2.11,2.11,0,0,0-.48-1.4,3.74,3.74,0,0,0-1.68-1c-.55-.19-1.8-.53-3.75-1a12.77,12.77,0,0,1-5.26-2.29,6,6,0,0,1-2.13-4.66,5.89,5.89,0,0,1,1-3.3,6.15,6.15,0,0,1,2.89-2.34,11.46,11.46,0,0,1,4.55-.81q4.35,0,6.56,1.91a6.75,6.75,0,0,1,2.31,5.1l-4.67.2a3.94,3.94,0,0,0-1.29-2.56,4.71,4.71,0,0,0-3-.78,5.27,5.27,0,0,0-3.18.83,1.69,1.69,0,0,0-.75,1.44,1.75,1.75,0,0,0,.7,1.4,12.23,12.23,0,0,0,4.29,1.55,23.1,23.1,0,0,1,5,1.66,6.61,6.61,0,0,1,2.56,2.35,7,7,0,0,1,.92,3.69,6.83,6.83,0,0,1-1.11,3.73,6.62,6.62,0,0,1-3.12,2.57,13,13,0,0,1-5,.85q-4.38,0-6.74-2A8.78,8.78,0,0,1,644.52,261.5Z"/><path class="cls-4" d="M687.73,269h-5.08l-2-5.26h-9.24L669.48,269h-5l9-23.14h4.94Zm-8.6-9.16L676,251.29l-3.13,8.58Z"/><path class="cls-4" d="M192.4,261.5l4.55-.44a5.58,5.58,0,0,0,1.66,3.36,5.08,5.08,0,0,0,3.39,1.07,5.24,5.24,0,0,0,3.4-.95,2.85,2.85,0,0,0,1.14-2.23,2.11,2.11,0,0,0-.48-1.4,3.74,3.74,0,0,0-1.68-1c-.55-.19-1.79-.53-3.74-1a12.89,12.89,0,0,1-5.27-2.29,6,6,0,0,1-2.13-4.66,5.89,5.89,0,0,1,1-3.3,6.2,6.2,0,0,1,2.89-2.34,11.46,11.46,0,0,1,4.55-.81q4.35,0,6.56,1.91a6.71,6.71,0,0,1,2.31,5.1l-4.67.2a3.94,3.94,0,0,0-1.29-2.56,4.68,4.68,0,0,0-3-.78,5.31,5.31,0,0,0-3.19.83,1.68,1.68,0,0,0-.74,1.44,1.77,1.77,0,0,0,.69,1.4,12.23,12.23,0,0,0,4.29,1.55,22.91,22.91,0,0,1,5,1.66,6.61,6.61,0,0,1,2.56,2.35,7.33,7.33,0,0,1-.18,7.42,6.64,6.64,0,0,1-3.13,2.57,12.92,12.92,0,0,1-5,.85c-2.93,0-5.17-.68-6.74-2A8.82,8.82,0,0,1,192.4,261.5Z"/><path class="cls-4" d="M214.83,245.89h4.66v12.53a26.56,26.56,0,0,0,.18,3.87,3.77,3.77,0,0,0,1.43,2.28,5,5,0,0,0,3.08.86,4.71,4.71,0,0,0,3-.81,3.27,3.27,0,0,0,1.22-2,27.2,27.2,0,0,0,.2-3.93v-12.8h4.68V258a31.46,31.46,0,0,1-.38,5.89,6.56,6.56,0,0,1-1.4,2.9,7.12,7.12,0,0,1-2.72,1.89,11.86,11.86,0,0,1-4.45.7,13,13,0,0,1-5-.76,7.21,7.21,0,0,1-2.7-2,6.29,6.29,0,0,1-1.31-2.57,27.68,27.68,0,0,1-.46-5.87Z"/><path class="cls-4" d="M264.36,325.59l2.83-.38a6.31,6.31,0,0,0,1.67,3.48,4.13,4.13,0,0,0,2.86,1.07,4.62,4.62,0,0,0,3.39-1.39,4.71,4.71,0,0,0,1.38-3.44,4.35,4.35,0,0,0-4.53-4.5,8.23,8.23,0,0,0-2,.32l.32-2.5.45,0a5.87,5.87,0,0,0,3.27-.94,3.26,3.26,0,0,0,1.45-2.92,3.44,3.44,0,0,0-1.06-2.59,3.76,3.76,0,0,0-2.73-1,3.9,3.9,0,0,0-2.76,1,5.23,5.23,0,0,0-1.42,3.13l-2.84-.51A7.28,7.28,0,0,1,267,310a6.82,6.82,0,0,1,4.59-1.57,7.55,7.55,0,0,1,3.48.81,5.79,5.79,0,0,1,2.44,2.22,5.64,5.64,0,0,1,.85,3,4.86,4.86,0,0,1-.81,2.73,5.51,5.51,0,0,1-2.38,2,5.36,5.36,0,0,1,3.19,2,6,6,0,0,1,1.14,3.73A6.84,6.84,0,0,1,277.3,330a7.77,7.77,0,0,1-5.59,2.11,7.29,7.29,0,0,1-5.06-1.82A7,7,0,0,1,264.36,325.59Z"/><path class="cls-4" d="M291.46,331.7h-2.84V313.6a14.89,14.89,0,0,1-2.69,1.95,18.09,18.09,0,0,1-3,1.47v-2.74a17.1,17.1,0,0,0,4.16-2.72,10.56,10.56,0,0,0,2.53-3.09h1.83Z"/><path class="cls-4" d="M366.07,331.7h-2.84V313.6a14.89,14.89,0,0,1-2.69,1.95,18.49,18.49,0,0,1-3,1.47v-2.74a17.49,17.49,0,0,0,4.16-2.72,10.51,10.51,0,0,0,2.52-3.09h1.84Z"/><path class="cls-4" d="M445,329v2.73H429.74a5,5,0,0,1,.33-2,10.51,10.51,0,0,1,1.87-3.08,29.16,29.16,0,0,1,3.72-3.5,31.48,31.48,0,0,0,5.09-4.91,5.81,5.81,0,0,0,1.33-3.41,3.79,3.79,0,0,0-1.21-2.85,4.35,4.35,0,0,0-3.15-1.16,4.44,4.44,0,0,0-3.28,1.23,4.66,4.66,0,0,0-1.24,3.41l-2.92-.3a7.16,7.16,0,0,1,2.26-5,7.68,7.68,0,0,1,5.25-1.71,7.29,7.29,0,0,1,5.27,1.85,6,6,0,0,1,1.94,4.57,6.89,6.89,0,0,1-.57,2.73,10.5,10.5,0,0,1-1.88,2.83,48.21,48.21,0,0,1-4.38,4.07c-1.71,1.43-2.8,2.4-3.29,2.91a9,9,0,0,0-1.19,1.54Z"/><path class="cls-4" d="M510.92,325.59l2.84-.38a6.24,6.24,0,0,0,1.66,3.48,4.13,4.13,0,0,0,2.87,1.07,4.61,4.61,0,0,0,3.38-1.39,4.71,4.71,0,0,0,1.38-3.44,4.33,4.33,0,0,0-1.28-3.23,4.39,4.39,0,0,0-3.25-1.27,8.16,8.16,0,0,0-2,.32l.31-2.5.46,0a5.87,5.87,0,0,0,3.27-.94,3.24,3.24,0,0,0,1.45-2.92,3.44,3.44,0,0,0-1.06-2.59,3.79,3.79,0,0,0-2.73-1,3.9,3.9,0,0,0-2.76,1A5.23,5.23,0,0,0,514,315l-2.84-.51a7.33,7.33,0,0,1,2.37-4.42,6.82,6.82,0,0,1,4.59-1.57,7.63,7.63,0,0,1,3.49.81,5.91,5.91,0,0,1,2.44,2.22,5.72,5.72,0,0,1,.84,3,4.93,4.93,0,0,1-.8,2.73,5.6,5.6,0,0,1-2.39,2,5.36,5.36,0,0,1,3.19,2,6,6,0,0,1,1.14,3.73,6.84,6.84,0,0,1-2.21,5.14,7.77,7.77,0,0,1-5.59,2.11,7.27,7.27,0,0,1-5.06-1.82A7,7,0,0,1,510.92,325.59Z"/><path class="cls-4" d="M600.8,331.7v-5.54h-10v-2.6l10.56-15h2.32v15h3.13v2.6h-3.13v5.54Zm0-8.14V313.12l-7.24,10.44Z"/><path class="cls-4" d="M658,325.64l3-.25a5.36,5.36,0,0,0,1.54,3.27,4.19,4.19,0,0,0,2.92,1.1,4.55,4.55,0,0,0,3.47-1.55,5.86,5.86,0,0,0,1.42-4.1,5.29,5.29,0,0,0-1.37-3.84,4.78,4.78,0,0,0-3.57-1.4,5,5,0,0,0-2.48.62,4.86,4.86,0,0,0-1.74,1.62l-2.66-.35,2.24-11.88h11.5v2.71H663l-1.25,6.22a7.53,7.53,0,0,1,4.38-1.45,6.93,6.93,0,0,1,5.11,2.1,7.33,7.33,0,0,1,2.08,5.39,8.41,8.41,0,0,1-1.83,5.43,7.31,7.31,0,0,1-6.07,2.81,7.53,7.53,0,0,1-5.16-1.76A6.93,6.93,0,0,1,658,325.64Z"/><path class="cls-4" d="M196.79,325.59l2.84-.38a6.24,6.24,0,0,0,1.67,3.48,4.09,4.09,0,0,0,2.86,1.07,4.59,4.59,0,0,0,3.38-1.39,4.68,4.68,0,0,0,1.39-3.44,4.37,4.37,0,0,0-1.28-3.23,4.42,4.42,0,0,0-3.25-1.27,8.09,8.09,0,0,0-2,.32l.31-2.5.45,0a5.82,5.82,0,0,0,3.27-.94,3.24,3.24,0,0,0,1.45-2.92,3.47,3.47,0,0,0-1-2.59,3.79,3.79,0,0,0-2.73-1,3.86,3.86,0,0,0-2.76,1,5.18,5.18,0,0,0-1.42,3.13l-2.84-.51a7.27,7.27,0,0,1,2.36-4.42,6.82,6.82,0,0,1,4.59-1.57,7.6,7.6,0,0,1,3.49.81A5.79,5.79,0,0,1,210,311.5a5.72,5.72,0,0,1,.84,3,4.85,4.85,0,0,1-.8,2.73,5.57,5.57,0,0,1-2.38,2,5.31,5.31,0,0,1,3.18,2,6,6,0,0,1,1.14,3.73,6.84,6.84,0,0,1-2.21,5.14,7.74,7.74,0,0,1-5.59,2.11,7.27,7.27,0,0,1-5-1.82A7,7,0,0,1,196.79,325.59Z"/><path class="cls-4" d="M215,320.29a21.19,21.19,0,0,1,.84-6.6,8.16,8.16,0,0,1,2.51-3.86,6.38,6.38,0,0,1,4.19-1.36,6.86,6.86,0,0,1,3.27.75,6.38,6.38,0,0,1,2.32,2.16,12,12,0,0,1,1.43,3.44,22.69,22.69,0,0,1,.52,5.47,21.5,21.5,0,0,1-.83,6.57,8.31,8.31,0,0,1-2.5,3.87,6.45,6.45,0,0,1-4.21,1.36,6.34,6.34,0,0,1-5.26-2.4C215.78,327.77,215,324.63,215,320.29Zm2.92,0c0,3.8.44,6.32,1.32,7.58a3.81,3.81,0,0,0,6.59,0c.89-1.26,1.33-3.79,1.33-7.57s-.44-6.34-1.33-7.59a4,4,0,0,0-3.32-1.88,3.63,3.63,0,0,0-3.13,1.66C218.42,313.89,217.94,316.49,217.94,320.29Z"/><path class="cls-4" d="M272.74,376.28v-2.72h15v2.21a30.75,30.75,0,0,0-4.38,6.25,37.08,37.08,0,0,0-3.35,8,29.17,29.17,0,0,0-1.1,6.36H276a28.49,28.49,0,0,1,1.07-6.6,34.89,34.89,0,0,1,2.94-7.45,32.26,32.26,0,0,1,4.08-6.06Z"/><path class="cls-4" d="M359.73,383.84a5.3,5.3,0,0,1-2.61-1.84,4.84,4.84,0,0,1-.86-2.88,5.62,5.62,0,0,1,1.82-4.24,7.63,7.63,0,0,1,9.7,0,5.68,5.68,0,0,1,1.85,4.29,4.75,4.75,0,0,1-.84,2.8,5.32,5.32,0,0,1-2.57,1.83,6.32,6.32,0,0,1,3.25,2.24,6.21,6.21,0,0,1,1.11,3.7,6.62,6.62,0,0,1-2.1,5,8.53,8.53,0,0,1-11.05,0,6.79,6.79,0,0,1-2.09-5.06,6,6,0,0,1,1.14-3.78A5.72,5.72,0,0,1,359.73,383.84Zm-1.48,5.87a5.24,5.24,0,0,0,.58,2.36,4.15,4.15,0,0,0,1.71,1.76,5.1,5.1,0,0,0,2.45.62,4.6,4.6,0,0,0,3.36-1.31,4.49,4.49,0,0,0,1.33-3.33,4.54,4.54,0,0,0-1.37-3.39,4.67,4.67,0,0,0-3.42-1.35,4.53,4.53,0,0,0-4.64,4.64Zm.92-10.68a3.6,3.6,0,0,0,1.06,2.69,3.75,3.75,0,0,0,2.75,1,3.65,3.65,0,0,0,2.68-1,3.41,3.41,0,0,0,1-2.53,3.55,3.55,0,0,0-1.08-2.63,4,4,0,0,0-5.39,0A3.37,3.37,0,0,0,359.17,379Z"/><path class="cls-4" d="M430.53,391l2.73-.25a4.7,4.7,0,0,0,1.33,2.79,3.63,3.63,0,0,0,2.5.87,4.36,4.36,0,0,0,2.3-.6,5,5,0,0,0,1.62-1.6,9.34,9.34,0,0,0,1.05-2.71,14,14,0,0,0,.43-3.47c0-.13,0-.31,0-.57a6.57,6.57,0,0,1-2.33,2.2,6.28,6.28,0,0,1-3.2.85,6.48,6.48,0,0,1-4.86-2.09,7.65,7.65,0,0,1-2-5.49,7.82,7.82,0,0,1,2.08-5.66,6.94,6.94,0,0,1,5.2-2.15,7.4,7.4,0,0,1,4.12,1.22,7.59,7.59,0,0,1,2.85,3.46,17.21,17.21,0,0,1,1,6.51,21.09,21.09,0,0,1-1,7.06,8.3,8.3,0,0,1-2.87,4,7.45,7.45,0,0,1-4.46,1.38,6.1,6.1,0,0,1-6.5-5.75Zm11.63-10.21a5.55,5.55,0,0,0-1.3-3.88,4.1,4.1,0,0,0-3.14-1.44,4.32,4.32,0,0,0-3.29,1.55,5.72,5.72,0,0,0-1.41,4,5,5,0,0,0,1.34,3.59,4.38,4.38,0,0,0,3.28,1.38,4.22,4.22,0,0,0,3.25-1.38A5.43,5.43,0,0,0,442.16,380.83Z"/><path class="cls-4" d="M513.25,396.39h-2.84v-18.1a15,15,0,0,1-2.69,2,20.31,20.31,0,0,1-3,1.47V379a17.73,17.73,0,0,0,4.17-2.71,11,11,0,0,0,2.52-3.1h1.83Z"/><path class="cls-4" d="M519.25,385a21.23,21.23,0,0,1,.84-6.6,8.24,8.24,0,0,1,2.51-3.86,6.39,6.39,0,0,1,4.19-1.36,6.83,6.83,0,0,1,3.27.75,6.23,6.23,0,0,1,2.32,2.16,11.42,11.42,0,0,1,1.43,3.44,22.8,22.8,0,0,1,.52,5.47,21.1,21.1,0,0,1-.83,6.57,8.23,8.23,0,0,1-2.5,3.87,7,7,0,0,1-9.46-1Q519.25,391.5,519.25,385Zm2.92,0q0,5.7,1.33,7.58a3.82,3.82,0,0,0,6.59,0c.88-1.27,1.33-3.79,1.33-7.58s-.45-6.34-1.33-7.59a4,4,0,0,0-3.32-1.88,3.63,3.63,0,0,0-3.13,1.66Q522.17,379.29,522.17,385Z"/><path class="cls-4" d="M595,396.39h-2.84v-18.1a15.13,15.13,0,0,1-2.7,2,19.78,19.78,0,0,1-3,1.47V379a17.46,17.46,0,0,0,4.16-2.71,10.66,10.66,0,0,0,2.52-3.1H595Z"/><path class="cls-4" d="M609.77,396.39h-2.84v-18.1a15.39,15.39,0,0,1-2.69,2,19.84,19.84,0,0,1-3,1.47V379a17.07,17.07,0,0,0,4.16-2.71,10.72,10.72,0,0,0,2.53-3.1h1.83Z"/><path class="cls-4" d="M660.56,396.39h-2.84v-18.1a15,15,0,0,1-2.69,2,19.84,19.84,0,0,1-3,1.47V379a17.53,17.53,0,0,0,4.17-2.71,10.83,10.83,0,0,0,2.52-3.1h1.83Z"/><path class="cls-4" d="M681,393.66v2.73H665.7a5.07,5.07,0,0,1,.33-2,10.64,10.64,0,0,1,1.87-3.08,29,29,0,0,1,3.71-3.5,31.26,31.26,0,0,0,5.1-4.9,5.86,5.86,0,0,0,1.33-3.42,3.8,3.8,0,0,0-1.21-2.85,4.37,4.37,0,0,0-3.15-1.16,4.43,4.43,0,0,0-3.28,1.23,4.66,4.66,0,0,0-1.25,3.41l-2.92-.3a7.22,7.22,0,0,1,2.26-5,7.72,7.72,0,0,1,5.25-1.71A7.35,7.35,0,0,1,679,375a6.07,6.07,0,0,1,1.94,4.58,6.88,6.88,0,0,1-.57,2.72,10.56,10.56,0,0,1-1.89,2.83,44.34,44.34,0,0,1-4.38,4.07q-2.55,2.15-3.28,2.91a9,9,0,0,0-1.19,1.54Z"/><path class="cls-4" d="M220.63,378.92l-2.82.22a5.3,5.3,0,0,0-1.08-2.43,3.74,3.74,0,0,0-2.84-1.21,3.87,3.87,0,0,0-2.38.76,6.43,6.43,0,0,0-2.11,2.85,14.76,14.76,0,0,0-.81,5.35,6.6,6.6,0,0,1,2.51-2.32,6.83,6.83,0,0,1,3.11-.76,6.46,6.46,0,0,1,4.84,2.09,7.53,7.53,0,0,1,2,5.41,9,9,0,0,1-.94,4.05,6.86,6.86,0,0,1-2.59,2.86,7,7,0,0,1-3.72,1,7.28,7.28,0,0,1-5.79-2.62c-1.5-1.74-2.24-4.61-2.24-8.61q0-6.71,2.47-9.75a7.17,7.17,0,0,1,5.83-2.65,6.19,6.19,0,0,1,6.56,5.76Zm-11.6,10a6.52,6.52,0,0,0,.63,2.81,4.58,4.58,0,0,0,1.74,2.05,4.43,4.43,0,0,0,2.35.7,4,4,0,0,0,3.09-1.45,5.68,5.68,0,0,0,1.3-3.95,5.36,5.36,0,0,0-1.28-3.78,4.19,4.19,0,0,0-3.22-1.38,4.37,4.37,0,0,0-3.26,1.38A5,5,0,0,0,209,388.89Z"/><path class="cls-4" d="M275.1,461.08h-2.84V443a14.54,14.54,0,0,1-2.69,2,20.31,20.31,0,0,1-3,1.47v-2.75a17.46,17.46,0,0,0,4.16-2.71,10.62,10.62,0,0,0,2.53-3.1h1.83Z"/><path class="cls-4" d="M289.81,461.08v-5.54h-10v-2.6l10.56-15h2.32v15h3.13v2.6h-3.13v5.54Zm0-8.14V442.51l-7.24,10.43Z"/><path class="cls-4" d="M357.88,461.08H355V443a14.89,14.89,0,0,1-2.69,2,19.84,19.84,0,0,1-3,1.47v-2.75a17.07,17.07,0,0,0,4.16-2.71,10.62,10.62,0,0,0,2.53-3.1h1.83Z"/><path class="cls-4" d="M363.55,455l3-.25a5.36,5.36,0,0,0,1.54,3.28,4.18,4.18,0,0,0,2.92,1.09,4.56,4.56,0,0,0,3.47-1.54,5.87,5.87,0,0,0,1.42-4.11,5.27,5.27,0,0,0-1.37-3.83,4.75,4.75,0,0,0-3.58-1.41,4.94,4.94,0,0,0-2.48.63,4.8,4.8,0,0,0-1.73,1.61l-2.66-.34,2.24-11.89h11.5V441h-9.23l-1.25,6.22a7.54,7.54,0,0,1,4.38-1.46,6.93,6.93,0,0,1,5.11,2.1,7.37,7.37,0,0,1,2.08,5.4,8.45,8.45,0,0,1-1.83,5.43,7.33,7.33,0,0,1-6.07,2.81,7.49,7.49,0,0,1-5.16-1.77A6.91,6.91,0,0,1,363.55,455Z"/><path class="cls-4" d="M432.45,461.08h-2.84V443a15,15,0,0,1-2.7,2,19.78,19.78,0,0,1-3,1.47v-2.75a17.46,17.46,0,0,0,4.16-2.71,10.62,10.62,0,0,0,2.53-3.1h1.83Z"/><path class="cls-4" d="M453.2,443.61l-2.82.22a5.31,5.31,0,0,0-1.07-2.42,3.75,3.75,0,0,0-2.84-1.22,3.88,3.88,0,0,0-2.39.76A6.43,6.43,0,0,0,442,443.8a14.84,14.84,0,0,0-.81,5.35,6.67,6.67,0,0,1,2.51-2.32,6.79,6.79,0,0,1,3.11-.75,6.39,6.39,0,0,1,4.83,2.09,7.49,7.49,0,0,1,2,5.4,8.87,8.87,0,0,1-.94,4.05,6.72,6.72,0,0,1-2.58,2.86,7,7,0,0,1-3.72,1,7.31,7.31,0,0,1-5.79-2.61c-1.5-1.74-2.24-4.61-2.24-8.61q0-6.72,2.48-9.76a7.11,7.11,0,0,1,5.82-2.65,6.19,6.19,0,0,1,6.56,5.76Zm-11.6,10a6.73,6.73,0,0,0,.62,2.82,4.76,4.76,0,0,0,1.75,2,4.35,4.35,0,0,0,2.35.7,4,4,0,0,0,3.09-1.45,5.68,5.68,0,0,0,1.3-3.95,5.37,5.37,0,0,0-1.28-3.78,4.2,4.2,0,0,0-3.22-1.37A4.36,4.36,0,0,0,443,450,5,5,0,0,0,441.6,453.58Z"/><path class="cls-4" d="M513.73,461.08h-2.84V443a14.89,14.89,0,0,1-2.69,2,19.84,19.84,0,0,1-3,1.47v-2.75a17.27,17.27,0,0,0,4.16-2.71,10.62,10.62,0,0,0,2.53-3.1h1.83Z"/><path class="cls-4" d="M519,441v-2.73h15v2.21a31.56,31.56,0,0,0-4.38,6.25,38.33,38.33,0,0,0-3.35,8,29.91,29.91,0,0,0-1.09,6.36H522.2a27.82,27.82,0,0,1,1.07-6.59,34.25,34.25,0,0,1,2.94-7.46,32.16,32.16,0,0,1,4.08-6Z"/><path class="cls-4" d="M594.14,461.08H591.3V443a14.89,14.89,0,0,1-2.69,2,19.84,19.84,0,0,1-3,1.47v-2.75a17.27,17.27,0,0,0,4.16-2.71,10.46,10.46,0,0,0,2.53-3.1h1.83Z"/><path class="cls-4" d="M604.32,448.53a5.27,5.27,0,0,1-2.62-1.84,4.87,4.87,0,0,1-.85-2.87,5.61,5.61,0,0,1,1.82-4.25,6.72,6.72,0,0,1,4.82-1.72,6.8,6.8,0,0,1,4.88,1.76,5.7,5.7,0,0,1,1.84,4.29,4.75,4.75,0,0,1-.84,2.8,5.27,5.27,0,0,1-2.56,1.83,6.26,6.26,0,0,1,3.24,2.25,6.16,6.16,0,0,1,1.11,3.69,6.65,6.65,0,0,1-2.1,5,8.54,8.54,0,0,1-11,0,6.74,6.74,0,0,1-2.1-5.06,6.15,6.15,0,0,1,1.14-3.78A5.76,5.76,0,0,1,604.32,448.53Zm-1.48,5.88a5.07,5.07,0,0,0,.58,2.35,4,4,0,0,0,1.71,1.76,4.92,4.92,0,0,0,2.44.62,4.58,4.58,0,0,0,3.36-1.31,4.45,4.45,0,0,0,1.33-3.33,4.54,4.54,0,0,0-1.37-3.39,4.69,4.69,0,0,0-3.41-1.34,4.5,4.5,0,0,0-4.64,4.64Zm.91-10.69a3.64,3.64,0,0,0,1.06,2.69,3.77,3.77,0,0,0,2.75,1,3.67,3.67,0,0,0,2.69-1,3.46,3.46,0,0,0,1-2.54,3.58,3.58,0,0,0-1.07-2.63,3.68,3.68,0,0,0-2.69-1.06,3.76,3.76,0,0,0-2.71,1A3.37,3.37,0,0,0,603.75,443.72Z"/><path class="cls-4" d="M660.39,461.08h-2.84V443a14.54,14.54,0,0,1-2.69,2,19.84,19.84,0,0,1-3,1.47v-2.75A17.46,17.46,0,0,0,656,441a10.62,10.62,0,0,0,2.53-3.1h1.83Z"/><path class="cls-4" d="M666.66,455.73l2.73-.25a4.69,4.69,0,0,0,1.33,2.79,3.62,3.62,0,0,0,2.51.87,4.36,4.36,0,0,0,2.3-.6,4.92,4.92,0,0,0,1.61-1.6,9.62,9.62,0,0,0,1.06-2.71,14.39,14.39,0,0,0,.42-3.47c0-.12,0-.31,0-.56a6.46,6.46,0,0,1-2.33,2.19,6.25,6.25,0,0,1-3.19.85,6.44,6.44,0,0,1-4.86-2.08,7.62,7.62,0,0,1-2-5.5,7.81,7.81,0,0,1,2.07-5.66,7,7,0,0,1,5.2-2.15,7.43,7.43,0,0,1,4.13,1.22,7.57,7.57,0,0,1,2.84,3.46,17,17,0,0,1,1,6.51,21.09,21.09,0,0,1-1,7.06,8.3,8.3,0,0,1-2.87,4,7.37,7.37,0,0,1-4.46,1.38,6.12,6.12,0,0,1-6.5-5.75Zm11.63-10.21a5.55,5.55,0,0,0-1.3-3.88,4.08,4.08,0,0,0-3.13-1.44,4.34,4.34,0,0,0-3.3,1.55,5.72,5.72,0,0,0-1.4,4,5,5,0,0,0,1.33,3.59,4.39,4.39,0,0,0,3.29,1.38,4.19,4.19,0,0,0,3.24-1.38A5.43,5.43,0,0,0,678.29,445.52Z"/><path class="cls-4" d="M208.51,461.08h-2.84V443a14.89,14.89,0,0,1-2.69,2,19.84,19.84,0,0,1-3,1.47v-2.75a17.07,17.07,0,0,0,4.16-2.71,10.51,10.51,0,0,0,2.54-3.1h1.82Z"/><path class="cls-4" d="M214,455l2.84-.38a6.31,6.31,0,0,0,1.67,3.48,4.08,4.08,0,0,0,2.86,1.06,4.57,4.57,0,0,0,3.38-1.39,4.64,4.64,0,0,0,1.38-3.44,4.34,4.34,0,0,0-1.27-3.22,4.42,4.42,0,0,0-3.25-1.27,8.15,8.15,0,0,0-2,.31l.32-2.49.45,0a5.8,5.8,0,0,0,3.27-.95,3.23,3.23,0,0,0,1.45-2.92,3.48,3.48,0,0,0-1.05-2.59,3.79,3.79,0,0,0-2.73-1,3.86,3.86,0,0,0-2.76,1,5.21,5.21,0,0,0-1.43,3.13l-2.84-.51a7.35,7.35,0,0,1,2.37-4.43,6.87,6.87,0,0,1,4.59-1.57,7.6,7.6,0,0,1,3.49.82,6,6,0,0,1,2.44,2.21,5.73,5.73,0,0,1,.84,3,5,5,0,0,1-.8,2.73,5.46,5.46,0,0,1-2.39,1.95,5.35,5.35,0,0,1,3.19,2,5.94,5.94,0,0,1,1.14,3.73,6.86,6.86,0,0,1-2.21,5.14,7.81,7.81,0,0,1-5.59,2.1,7.26,7.26,0,0,1-5.05-1.81A7,7,0,0,1,214,455Z"/><path class="cls-4" d="M279.05,523v2.73H263.76a5.07,5.07,0,0,1,.33-2,10.64,10.64,0,0,1,1.87-3.08,29.19,29.19,0,0,1,3.72-3.5,32.14,32.14,0,0,0,5.1-4.9,5.91,5.91,0,0,0,1.32-3.42,3.77,3.77,0,0,0-1.21-2.84,4.32,4.32,0,0,0-3.15-1.17,4.48,4.48,0,0,0-3.28,1.23,4.63,4.63,0,0,0-1.24,3.41l-2.92-.3a7.24,7.24,0,0,1,2.25-5,7.78,7.78,0,0,1,5.26-1.71,7.35,7.35,0,0,1,5.27,1.85A6.08,6.08,0,0,1,279,509a7,7,0,0,1-.57,2.73,10.87,10.87,0,0,1-1.88,2.82,45.47,45.47,0,0,1-4.38,4.07c-1.71,1.43-2.8,2.4-3.29,2.91a10.59,10.59,0,0,0-1.2,1.54Z"/><path class="cls-4" d="M291.68,525.77h-2.84v-18.1a14.42,14.42,0,0,1-2.69,2,19.84,19.84,0,0,1-3,1.47v-2.75a17.27,17.27,0,0,0,4.16-2.71,10.75,10.75,0,0,0,2.53-3.1h1.83Z"/><path class="cls-4" d="M361.23,523v2.73H345.94a4.9,4.9,0,0,1,.33-2,10.43,10.43,0,0,1,1.87-3.08,29.19,29.19,0,0,1,3.72-3.5,31.52,31.52,0,0,0,5.09-4.9,5.84,5.84,0,0,0,1.32-3.42,3.79,3.79,0,0,0-1.2-2.84,4.34,4.34,0,0,0-3.15-1.17,4.47,4.47,0,0,0-3.28,1.23,4.68,4.68,0,0,0-1.25,3.41l-2.92-.3a7.2,7.2,0,0,1,2.26-5,7.76,7.76,0,0,1,5.26-1.71,7.29,7.29,0,0,1,5.26,1.85A6.05,6.05,0,0,1,361.2,509a7,7,0,0,1-.57,2.73,10.68,10.68,0,0,1-1.89,2.82,44.28,44.28,0,0,1-4.38,4.07c-1.7,1.43-2.8,2.4-3.28,2.91a10.59,10.59,0,0,0-1.2,1.54Z"/><path class="cls-4" d="M379.36,523v2.73H364.07a4.9,4.9,0,0,1,.34-2,10.18,10.18,0,0,1,1.86-3.08,29.89,29.89,0,0,1,3.72-3.5,31.52,31.52,0,0,0,5.09-4.9,5.86,5.86,0,0,0,1.33-3.42,3.79,3.79,0,0,0-1.2-2.84,4.35,4.35,0,0,0-3.15-1.17,4.49,4.49,0,0,0-3.29,1.23,4.68,4.68,0,0,0-1.24,3.41l-2.92-.3a7.24,7.24,0,0,1,2.25-5,7.78,7.78,0,0,1,5.26-1.71,7.33,7.33,0,0,1,5.27,1.85,6,6,0,0,1,1.94,4.58,7.13,7.13,0,0,1-.56,2.73,11.2,11.2,0,0,1-1.89,2.82,45.47,45.47,0,0,1-4.38,4.07c-1.7,1.43-2.8,2.4-3.28,2.91A9.36,9.36,0,0,0,368,523Z"/><path class="cls-4" d="M436.13,523v2.73H420.84a5.08,5.08,0,0,1,.34-2,10.6,10.6,0,0,1,1.86-3.08,29.38,29.38,0,0,1,3.73-3.5,31.52,31.52,0,0,0,5.09-4.9,5.91,5.91,0,0,0,1.32-3.42,3.79,3.79,0,0,0-1.2-2.84,4.34,4.34,0,0,0-3.15-1.17,4.45,4.45,0,0,0-3.28,1.23,4.68,4.68,0,0,0-1.25,3.41l-2.92-.3a7.2,7.2,0,0,1,2.26-5,7.74,7.74,0,0,1,5.26-1.71,7.32,7.32,0,0,1,5.26,1.85A6,6,0,0,1,436.1,509a7,7,0,0,1-.56,2.73,10.68,10.68,0,0,1-1.89,2.82,45.47,45.47,0,0,1-4.38,4.07c-1.7,1.43-2.8,2.4-3.28,2.91a10.59,10.59,0,0,0-1.2,1.54Z"/><path class="cls-4" d="M439,519.67l2.84-.38a6.24,6.24,0,0,0,1.66,3.48,4.13,4.13,0,0,0,2.87,1.06,4.57,4.57,0,0,0,3.38-1.39,4.69,4.69,0,0,0,1.38-3.44,4.35,4.35,0,0,0-1.28-3.23,4.42,4.42,0,0,0-3.25-1.26,8.08,8.08,0,0,0-2,.31l.31-2.49.46,0a5.85,5.85,0,0,0,3.27-.95,3.23,3.23,0,0,0,1.45-2.92,3.48,3.48,0,0,0-1.05-2.59,3.79,3.79,0,0,0-2.74-1,3.9,3.9,0,0,0-2.76,1,5.26,5.26,0,0,0-1.42,3.13l-2.84-.51a7.35,7.35,0,0,1,2.37-4.43,6.87,6.87,0,0,1,4.59-1.57,7.51,7.51,0,0,1,3.49.82,6,6,0,0,1,2.44,2.21,5.73,5.73,0,0,1,.84,3,5,5,0,0,1-.8,2.73,5.54,5.54,0,0,1-2.38,1.95,5.38,5.38,0,0,1,3.18,2,5.94,5.94,0,0,1,1.14,3.73,6.86,6.86,0,0,1-2.21,5.14,7.81,7.81,0,0,1-5.59,2.1,7.27,7.27,0,0,1-5.06-1.81A7,7,0,0,1,439,519.67Z"/><path class="cls-4" d="M517.2,523v2.73H501.9a5.08,5.08,0,0,1,.34-2,10.6,10.6,0,0,1,1.86-3.08,29.89,29.89,0,0,1,3.72-3.5,31.26,31.26,0,0,0,5.1-4.9,5.91,5.91,0,0,0,1.32-3.42,3.79,3.79,0,0,0-1.2-2.84,4.34,4.34,0,0,0-3.15-1.17,4.51,4.51,0,0,0-3.29,1.23,4.72,4.72,0,0,0-1.24,3.41l-2.92-.3a7.2,7.2,0,0,1,2.26-5,7.75,7.75,0,0,1,5.25-1.71,7.33,7.33,0,0,1,5.27,1.85,6,6,0,0,1,1.94,4.58,7.13,7.13,0,0,1-.56,2.73,10.68,10.68,0,0,1-1.89,2.82,45.47,45.47,0,0,1-4.38,4.07c-1.7,1.43-2.8,2.4-3.28,2.91a9.36,9.36,0,0,0-1.2,1.54Z"/><path class="cls-4" d="M528.63,525.77v-5.54h-10v-2.6l10.56-15h2.32v15h3.12v2.6h-3.12v5.54Zm0-8.14V507.2l-7.24,10.43Z"/><path class="cls-4" d="M597.84,523v2.73H582.56a4.73,4.73,0,0,1,.33-2,10.22,10.22,0,0,1,1.87-3.08,29,29,0,0,1,3.71-3.5,31.26,31.26,0,0,0,5.1-4.9,5.93,5.93,0,0,0,1.33-3.42,3.8,3.8,0,0,0-1.21-2.84,4.35,4.35,0,0,0-3.15-1.17,4.47,4.47,0,0,0-3.28,1.23,4.64,4.64,0,0,0-1.25,3.41l-2.92-.3a7.24,7.24,0,0,1,2.26-5,7.73,7.73,0,0,1,5.25-1.71,7.33,7.33,0,0,1,5.27,1.85,6.05,6.05,0,0,1,2,4.58,7,7,0,0,1-.57,2.73,10.68,10.68,0,0,1-1.89,2.82,45.47,45.47,0,0,1-4.38,4.07q-2.55,2.14-3.28,2.91a9.94,9.94,0,0,0-1.2,1.54Z"/><path class="cls-4" d="M600.47,519.71l3-.25a5.25,5.25,0,0,0,1.54,3.27,4.12,4.12,0,0,0,2.9,1.1,4.51,4.51,0,0,0,3.47-1.54,5.84,5.84,0,0,0,1.42-4.11,5.26,5.26,0,0,0-1.36-3.83,4.74,4.74,0,0,0-3.57-1.41,4.92,4.92,0,0,0-2.48.63,4.75,4.75,0,0,0-1.74,1.61l-2.66-.34L603.22,503h11.5v2.72h-9.23l-1.24,6.22a7.48,7.48,0,0,1,4.36-1.46,6.92,6.92,0,0,1,5.12,2.1,7.37,7.37,0,0,1,2.08,5.4,8.45,8.45,0,0,1-1.83,5.43,7.34,7.34,0,0,1-6.08,2.81,7.49,7.49,0,0,1-5.15-1.77A6.91,6.91,0,0,1,600.47,519.71Z"/><path class="cls-4" d="M664,523v2.73H648.69a4.9,4.9,0,0,1,.34-2,10.39,10.39,0,0,1,1.86-3.08,29.89,29.89,0,0,1,3.72-3.5,32.14,32.14,0,0,0,5.1-4.9A5.91,5.91,0,0,0,661,508.9a3.79,3.79,0,0,0-1.2-2.84,4.35,4.35,0,0,0-3.15-1.17,4.45,4.45,0,0,0-3.28,1.23,4.68,4.68,0,0,0-1.25,3.41l-2.92-.3a7.2,7.2,0,0,1,2.26-5,7.73,7.73,0,0,1,5.25-1.71,7.33,7.33,0,0,1,5.27,1.85A6,6,0,0,1,664,509a7.13,7.13,0,0,1-.56,2.73,10.93,10.93,0,0,1-1.89,2.82,45.47,45.47,0,0,1-4.38,4.07c-1.7,1.43-2.8,2.4-3.28,2.91a9.94,9.94,0,0,0-1.2,1.54Z"/><path class="cls-4" d="M681.61,508.3l-2.83.23a5.2,5.2,0,0,0-1.07-2.43,3.74,3.74,0,0,0-2.84-1.22,3.85,3.85,0,0,0-2.38.76,6.45,6.45,0,0,0-2.12,2.85,15.29,15.29,0,0,0-.81,5.35,6.7,6.7,0,0,1,2.52-2.32,6.83,6.83,0,0,1,3.11-.76,6.44,6.44,0,0,1,4.83,2.09,7.53,7.53,0,0,1,2,5.41,9,9,0,0,1-.94,4,6.72,6.72,0,0,1-2.58,2.86,7,7,0,0,1-3.72,1,7.3,7.3,0,0,1-5.8-2.61q-2.24-2.61-2.24-8.61c0-4.47.83-7.73,2.48-9.75a7.12,7.12,0,0,1,5.82-2.66,6.6,6.6,0,0,1,4.48,1.53A6.52,6.52,0,0,1,681.61,508.3Zm-11.6,10a6.72,6.72,0,0,0,.62,2.81,4.69,4.69,0,0,0,1.75,2,4.32,4.32,0,0,0,2.35.7,4,4,0,0,0,3.09-1.45,5.73,5.73,0,0,0,1.3-4,5.33,5.33,0,0,0-1.28-3.77,4.21,4.21,0,0,0-3.23-1.38,4.37,4.37,0,0,0-3.26,1.38A5,5,0,0,0,670,518.28Z"/><path class="cls-4" d="M211.92,523v2.73H196.63a5.07,5.07,0,0,1,.33-2,10.47,10.47,0,0,1,1.88-3.08,29,29,0,0,1,3.71-3.5,31.26,31.26,0,0,0,5.1-4.9A5.91,5.91,0,0,0,209,508.9a3.79,3.79,0,0,0-1.2-2.84,4.35,4.35,0,0,0-3.15-1.17,4.51,4.51,0,0,0-3.29,1.23,4.68,4.68,0,0,0-1.24,3.41l-2.92-.3a7.24,7.24,0,0,1,2.25-5,7.78,7.78,0,0,1,5.26-1.71,7.33,7.33,0,0,1,5.27,1.85,6.09,6.09,0,0,1,2,4.58,7,7,0,0,1-.58,2.73,10.38,10.38,0,0,1-1.88,2.82,45.47,45.47,0,0,1-4.38,4.07c-1.7,1.43-2.8,2.4-3.28,2.91a9.94,9.94,0,0,0-1.2,1.54Z"/><path class="cls-4" d="M214.79,514.36a21.28,21.28,0,0,1,.84-6.6,8.31,8.31,0,0,1,2.51-3.86,6.39,6.39,0,0,1,4.19-1.36,6.83,6.83,0,0,1,3.27.75,6.23,6.23,0,0,1,2.32,2.16,11.48,11.48,0,0,1,1.43,3.45,22.58,22.58,0,0,1,.53,5.46,21.07,21.07,0,0,1-.84,6.57,8.23,8.23,0,0,1-2.5,3.87,6.42,6.42,0,0,1-4.21,1.37,6.35,6.35,0,0,1-5.25-2.4C215.55,521.84,214.79,518.71,214.79,514.36Zm2.92,0c0,3.8.45,6.33,1.33,7.59a3.82,3.82,0,0,0,6.59,0c.88-1.26,1.33-3.79,1.33-7.58s-.45-6.33-1.33-7.59a4,4,0,0,0-3.32-1.88,3.66,3.66,0,0,0-3.13,1.66C218.2,508,217.71,510.57,217.71,514.36Z"/><path class="cls-4" d="M278.68,587.74v2.72H263.39a5.07,5.07,0,0,1,.33-2,10.64,10.64,0,0,1,1.87-3.08,29.89,29.89,0,0,1,3.72-3.5,31.09,31.09,0,0,0,5.09-4.9,5.81,5.81,0,0,0,1.33-3.41,3.77,3.77,0,0,0-1.21-2.85,4.31,4.31,0,0,0-3.15-1.16,4.44,4.44,0,0,0-3.28,1.23,4.68,4.68,0,0,0-1.24,3.41l-2.92-.3a7.16,7.16,0,0,1,2.26-5,7.68,7.68,0,0,1,5.25-1.71,7.32,7.32,0,0,1,5.27,1.84,6,6,0,0,1,1.94,4.58,7.13,7.13,0,0,1-.56,2.73,10.77,10.77,0,0,1-1.89,2.82,45.47,45.47,0,0,1-4.38,4.07c-1.7,1.44-2.8,2.41-3.28,2.92a8.59,8.59,0,0,0-1.2,1.54Z"/><path class="cls-4" d="M285.72,577.92a5.34,5.34,0,0,1-2.62-1.85,4.8,4.8,0,0,1-.85-2.87,5.6,5.6,0,0,1,1.81-4.24,7.64,7.64,0,0,1,9.71,0,5.68,5.68,0,0,1,1.85,4.28,4.74,4.74,0,0,1-.85,2.8,5.3,5.3,0,0,1-2.56,1.84,5.89,5.89,0,0,1,4.35,5.93,6.65,6.65,0,0,1-2.1,5,8.54,8.54,0,0,1-11,0,6.74,6.74,0,0,1-2.1-5.06,6.09,6.09,0,0,1,1.15-3.78A5.76,5.76,0,0,1,285.72,577.92Zm-1.48,5.87a5.19,5.19,0,0,0,.57,2.35,4.15,4.15,0,0,0,1.71,1.76,5,5,0,0,0,2.45.62,4.54,4.54,0,0,0,3.36-1.31,4.45,4.45,0,0,0,1.33-3.32,4.61,4.61,0,0,0-1.36-3.4,4.7,4.7,0,0,0-3.42-1.34,4.53,4.53,0,0,0-4.64,4.64Zm.91-10.68a3.62,3.62,0,0,0,1.06,2.68,3.76,3.76,0,0,0,2.75,1,3.63,3.63,0,0,0,2.68-1,3.4,3.4,0,0,0,1.06-2.54,3.55,3.55,0,0,0-1.08-2.62,4,4,0,0,0-5.39,0A3.36,3.36,0,0,0,285.15,573.11Z"/><path class="cls-4" d="M361.33,587.74v2.72H346a5.07,5.07,0,0,1,.33-2,10.64,10.64,0,0,1,1.87-3.08,29.89,29.89,0,0,1,3.72-3.5,30.84,30.84,0,0,0,5.1-4.9,5.86,5.86,0,0,0,1.32-3.41,3.8,3.8,0,0,0-1.2-2.85,4.35,4.35,0,0,0-3.15-1.16,4.47,4.47,0,0,0-3.29,1.23,4.64,4.64,0,0,0-1.24,3.41l-2.92-.3a7.16,7.16,0,0,1,2.26-5,7.68,7.68,0,0,1,5.25-1.71,7.32,7.32,0,0,1,5.27,1.84,6.08,6.08,0,0,1,1.94,4.58,7,7,0,0,1-.57,2.73,10.23,10.23,0,0,1-1.88,2.82,45.47,45.47,0,0,1-4.38,4.07q-2.56,2.16-3.28,2.92a8.59,8.59,0,0,0-1.2,1.54Z"/><path class="cls-4" d="M364.77,585.12l2.73-.26a4.75,4.75,0,0,0,1.32,2.8,3.68,3.68,0,0,0,2.51.86,4.21,4.21,0,0,0,2.29-.6,4.86,4.86,0,0,0,1.62-1.6,9.37,9.37,0,0,0,1.06-2.7,14,14,0,0,0,.42-3.47c0-.13,0-.32,0-.57a6.58,6.58,0,0,1-2.33,2.2,6.34,6.34,0,0,1-3.19.84,6.47,6.47,0,0,1-4.87-2.08,7.65,7.65,0,0,1-2-5.5,7.81,7.81,0,0,1,2.07-5.66,7,7,0,0,1,5.21-2.14,7.39,7.39,0,0,1,4.12,1.21,7.54,7.54,0,0,1,2.84,3.47,17.21,17.21,0,0,1,1,6.51,21.17,21.17,0,0,1-1,7.06,8.33,8.33,0,0,1-2.86,4,7.47,7.47,0,0,1-4.46,1.37,6.11,6.11,0,0,1-6.5-5.74ZM376.4,574.9a5.6,5.6,0,0,0-1.3-3.88,4.12,4.12,0,0,0-3.14-1.43,4.33,4.33,0,0,0-3.3,1.54,5.76,5.76,0,0,0-1.4,4,4.93,4.93,0,0,0,1.33,3.59,4.4,4.4,0,0,0,3.29,1.38,4.19,4.19,0,0,0,3.24-1.38A5.42,5.42,0,0,0,376.4,574.9Z"/><path class="cls-4" d="M421,584.36l2.84-.38a6.24,6.24,0,0,0,1.67,3.48,4.1,4.1,0,0,0,2.86,1.06,4.58,4.58,0,0,0,3.39-1.39,4.71,4.71,0,0,0,1.38-3.44,4.35,4.35,0,0,0-1.28-3.22,4.41,4.41,0,0,0-3.25-1.27,8.15,8.15,0,0,0-2,.31l.32-2.49.46,0a5.77,5.77,0,0,0,3.26-.95,3.24,3.24,0,0,0,1.46-2.92A3.45,3.45,0,0,0,431,570.6a3.75,3.75,0,0,0-2.73-1,3.86,3.86,0,0,0-2.76,1,5.23,5.23,0,0,0-1.42,3.13l-2.84-.51a7.29,7.29,0,0,1,2.36-4.43,6.88,6.88,0,0,1,4.59-1.56,7.57,7.57,0,0,1,3.49.81,5.85,5.85,0,0,1,2.44,2.22,5.71,5.71,0,0,1,.85,3,4.86,4.86,0,0,1-.81,2.73,5.51,5.51,0,0,1-2.38,2,5.34,5.34,0,0,1,3.19,2,6,6,0,0,1,1.13,3.73,6.86,6.86,0,0,1-2.21,5.14,7.77,7.77,0,0,1-5.58,2.1,7.25,7.25,0,0,1-5.06-1.81A7,7,0,0,1,421,584.36Z"/><path class="cls-4" d="M439.22,579.06a21.26,21.26,0,0,1,.85-6.61,8.33,8.33,0,0,1,2.5-3.86,6.45,6.45,0,0,1,4.2-1.35A6.79,6.79,0,0,1,450,568a6.18,6.18,0,0,1,2.32,2.17,11.68,11.68,0,0,1,1.44,3.44,23.21,23.21,0,0,1,.52,5.47,21.5,21.5,0,0,1-.83,6.57,8.29,8.29,0,0,1-2.51,3.86,7,7,0,0,1-9.46-1C440,586.53,439.22,583.4,439.22,579.06Zm2.92,0c0,3.8.45,6.32,1.34,7.58a3.81,3.81,0,0,0,6.58,0c.89-1.26,1.33-3.79,1.33-7.57s-.44-6.34-1.33-7.6a4,4,0,0,0-3.32-1.87,3.63,3.63,0,0,0-3.13,1.66C442.63,572.65,442.14,575.26,442.14,579.06Z"/><path class="cls-4" d="M502.71,584.36l2.84-.38a6.24,6.24,0,0,0,1.66,3.48,4.12,4.12,0,0,0,2.86,1.06,4.58,4.58,0,0,0,3.39-1.39,4.67,4.67,0,0,0,1.38-3.44,4.35,4.35,0,0,0-1.28-3.22,4.39,4.39,0,0,0-3.25-1.27,8.15,8.15,0,0,0-2,.31l.32-2.49.45,0a5.8,5.8,0,0,0,3.27-.95,3.23,3.23,0,0,0,1.45-2.92,3.42,3.42,0,0,0-1.06-2.58,3.72,3.72,0,0,0-2.73-1,3.9,3.9,0,0,0-2.76,1,5.23,5.23,0,0,0-1.42,3.13l-2.84-.51a7.35,7.35,0,0,1,2.37-4.43,6.86,6.86,0,0,1,4.59-1.56,7.63,7.63,0,0,1,3.49.81,5.82,5.82,0,0,1,2.43,2.22,5.62,5.62,0,0,1,.85,3,4.86,4.86,0,0,1-.81,2.73,5.51,5.51,0,0,1-2.38,2,5.32,5.32,0,0,1,3.19,2,6,6,0,0,1,1.14,3.73,6.86,6.86,0,0,1-2.21,5.14,7.81,7.81,0,0,1-5.59,2.1,7.28,7.28,0,0,1-5.06-1.81A7,7,0,0,1,502.71,584.36Z"/><path class="cls-4" d="M529.81,590.46H527V572.37a14.89,14.89,0,0,1-2.69,2,19.84,19.84,0,0,1-3,1.47V573a17.27,17.27,0,0,0,4.16-2.71,10.56,10.56,0,0,0,2.53-3.09h1.83Z"/><path class="cls-4" d="M602.39,590.46h-2.84V572.37a14.43,14.43,0,0,1-2.68,2,19.9,19.9,0,0,1-3,1.47V573a17.33,17.33,0,0,0,4.17-2.71,10.67,10.67,0,0,0,2.52-3.09h1.83Z"/><path class="cls-4" d="M672.89,587.74v2.72H657.6a5.07,5.07,0,0,1,.33-2,10.43,10.43,0,0,1,1.87-3.08,29.19,29.19,0,0,1,3.72-3.5,31.09,31.09,0,0,0,5.09-4.9,5.81,5.81,0,0,0,1.33-3.41,3.77,3.77,0,0,0-1.21-2.85,4.31,4.31,0,0,0-3.15-1.16,4.44,4.44,0,0,0-3.28,1.23,4.6,4.6,0,0,0-1.24,3.41l-2.92-.3a7.2,7.2,0,0,1,2.25-5,7.73,7.73,0,0,1,5.26-1.71,7.36,7.36,0,0,1,5.27,1.84,6.08,6.08,0,0,1,1.94,4.58,7,7,0,0,1-.57,2.73,10.71,10.71,0,0,1-1.88,2.82,46.73,46.73,0,0,1-4.38,4.07c-1.71,1.44-2.8,2.41-3.29,2.92a9.61,9.61,0,0,0-1.2,1.54Z"/><path class="cls-4" d="M212.07,587.74v2.72H196.78a5.07,5.07,0,0,1,.33-2,10.64,10.64,0,0,1,1.87-3.08,29.7,29.7,0,0,1,3.71-3.5,30.84,30.84,0,0,0,5.1-4.9,5.81,5.81,0,0,0,1.33-3.41,3.77,3.77,0,0,0-1.21-2.85,4.33,4.33,0,0,0-3.15-1.16,4.43,4.43,0,0,0-3.28,1.23,4.65,4.65,0,0,0-1.25,3.41l-2.91-.3a7.15,7.15,0,0,1,2.25-5,7.72,7.72,0,0,1,5.25-1.71,7.35,7.35,0,0,1,5.28,1.84,6.08,6.08,0,0,1,1.94,4.58,7,7,0,0,1-.57,2.73,10.52,10.52,0,0,1-1.89,2.82,43.15,43.15,0,0,1-4.38,4.07q-2.55,2.16-3.28,2.92a9.61,9.61,0,0,0-1.2,1.54Z"/><path class="cls-4" d="M214.83,570.36v-2.73h15v2.21a31.86,31.86,0,0,0-4.38,6.25,37.88,37.88,0,0,0-3.35,8,29.7,29.7,0,0,0-1.09,6.35h-2.92a28.5,28.5,0,0,1,1.07-6.59,35,35,0,0,1,3-7.46,31.68,31.68,0,0,1,4.07-6Z"/></g></svg>