<svg xmlns="http://www.w3.org/2000/svg" xmlns:xlink="http://www.w3.org/1999/xlink" viewBox="0 0 416.93 307.8"><defs><style>.cls-1,.cls-4{fill:none;}.cls-2{fill:#627dfa;}.cls-3{clip-path:url(#clip-path);}.cls-4{stroke:#627dfa;stroke-miterlimit:10;stroke-width:7px;}</style><clipPath id="clip-path"><rect class="cls-1" y="-0.69" width="416.93" height="308.49"/></clipPath></defs><title>i</title><g id="Capa_1" data-name="Capa 1"><path class="cls-2" d="M317.57,176.28h-14a5.91,5.91,0,1,0,0,11.81h14a5.91,5.91,0,1,0,0-11.81Zm0,0"/><path class="cls-2" d="M338.18,75.66a10.15,10.15,0,0,0-9.85-7.34h-24.8a10,10,0,0,0-10.18,9.85v76.65a10,10,0,0,0,10.18,9.85H349.2a10.26,10.26,0,0,0,8.07-3.84,9.54,9.54,0,0,0,1.78-8.52Zm-32.62,77.19V80.13h21.21l19.8,72.72Zm0,0"/><path class="cls-2" d="M329.13,245.84c-11.35,0-20.57,8.92-20.57,19.89s9.22,19.89,20.57,19.89,20.57-8.92,20.57-19.89-9.23-19.89-20.57-19.89Zm0,28a8.08,8.08,0,1,1,8.35-8.08,8.24,8.24,0,0,1-8.35,8.08Zm0,0"/><path class="cls-2" d="M66.41,265.73c0,11,9.23,19.89,20.58,19.89s20.57-8.92,20.57-19.89S98.33,245.84,87,245.84s-20.58,8.92-20.58,19.89Zm28.93,0A8.36,8.36,0,1,1,87,257.65a8.23,8.23,0,0,1,8.35,8.08Zm0,0"/><g class="cls-3"><path class="cls-2" d="M14.56,135.7v67.92H6.11a5.91,5.91,0,1,0,0,11.81h8.45v32a9.19,9.19,0,0,0,9.33,9H45.21a39.83,39.83,0,0,0-1.09,9.25c0,22.86,19.23,41.46,42.87,41.46a44,44,0,0,0,21.77-5.74,5.8,5.8,0,0,0,2.15-8.09,6.22,6.22,0,0,0-8.36-2.08A31.45,31.45,0,0,1,87,295.37c-16.91,0-30.66-13.29-30.66-29.64S70.08,236.09,87,236.09s30.65,13.29,30.65,29.63a28.94,28.94,0,0,1-.66,6.16l0,.1-.52,2a5.91,5.91,0,0,0,4.45,7.16,6.13,6.13,0,0,0,7.4-4.3l.51-2a40.09,40.09,0,0,0,0-18.4H287.35a39.83,39.83,0,0,0-1.09,9.25c0,22.86,19.23,41.46,42.87,41.46S372,288.59,372,265.73a40.37,40.37,0,0,0-1.09-9.25h36.68a9.2,9.2,0,0,0,9.34-9V173.34c0-11.05-9.3-20-20.73-20h-3.82a10,10,0,0,1-9.58-6.78l-29.92-91.2h5.79a10,10,0,0,0,7.77-3.65,9.26,9.26,0,0,0,1.82-8.17l-4.51-17.89a9.79,9.79,0,0,0-9.59-7.28H283.59V9a9.19,9.19,0,0,0-9.33-9H23.89a9.2,9.2,0,0,0-9.33,9V36.82a6.11,6.11,0,0,0,12.21,0v-25H271.38V244.67H123.89a43.58,43.58,0,0,0-73.81,0H26.77V215.43H86.51a5.91,5.91,0,1,0,0-11.81H26.77V63.38a6.11,6.11,0,0,0-12.21,0V135.7m269-105.56h68.73l3.37,13.37h-72.1Zm45.54,265.23c-16.9,0-30.66-13.29-30.66-29.64s13.76-29.64,30.66-29.64,30.66,13.29,30.66,29.64S346,295.37,329.13,295.37Zm75.58-95.56H391.4V186.94h13.31Zm0-24.69H389.37A10,10,0,0,0,379.19,185v16.79a10,10,0,0,0,10.18,9.86h15.34v33H366a43.58,43.58,0,0,0-73.81,0h-8.63V55.31h56.47l5.6,17.07,25.5,77.71a22.1,22.1,0,0,0,21.22,15h3.82a8.38,8.38,0,0,1,8.51,8.23Zm0,0"/></g><path class="cls-4" d="M182.13,95.41,189,95h0a16.15,16.15,0,0,0,12-7l5.43-8a32.13,32.13,0,0,0,5.14-23.55,7.24,7.24,0,0,0-2.33-4.21,7.32,7.32,0,0,0-4.46-1.82,32.08,32.08,0,0,0-22.77,7.94l-7.25,6.34a16.19,16.19,0,0,0-5.54,12.79v0l.39,6.86A9.69,9.69,0,0,1,167,91.61l-56.63,58.17a8.23,8.23,0,0,0-2.2,6.11,9.46,9.46,0,0,0,9.59,9.2q.38,0,.75,0a8.28,8.28,0,0,0,5.81-2.93l50.95-63.19a9.61,9.61,0,0,1,6.87-3.53Zm-9.59,1.33"/><path class="cls-2" d="M208.86,149.34l-38-34.58a1.75,1.75,0,0,0-2.47.11c-.65.72-1.34,2.76-.63,3.41l38,34.58a4.73,4.73,0,0,1,1.45,3.46c0,1.66-.6,1.08-1.73,2.21s-.46,2.3-2.13,2.27a4.76,4.76,0,0,1-3.45-1.43L165.61,122.5a1.75,1.75,0,0,0-2.47-.11c-.71.65-1.94,2.26-1.28,3l33.84,37.16a8.18,8.18,0,0,0,6,2.56h.19a9.48,9.48,0,0,0,9.58-9.78,8.21,8.21,0,0,0-2.57-6Zm0,0"/><path class="cls-2" d="M116.46,95.07a16.24,16.24,0,0,0,10.6,4.29h0l6.88,0A9.66,9.66,0,0,1,141,102.5l3,3.32a1.75,1.75,0,0,0,2.59-2.36l-3-3.33A13.16,13.16,0,0,0,134,95.88l-6.86,0a12.76,12.76,0,0,1-8.21-3.29L99,68.89a.59.59,0,0,1,0-.81.59.59,0,0,1,.85,0L118,86.21a4.61,4.61,0,0,0,6.5,0l2.13-2.13h0l3.79-3.78h0l2.13-2.13a4.61,4.61,0,0,0,0-6.5L114.43,53.53a.59.59,0,0,1,0-.85.6.6,0,0,1,.81,0l23.68,19.92a12.7,12.7,0,0,1,3.29,8.21l0,6.86a13.17,13.17,0,0,0,4.26,9.64l3.24,3a1.75,1.75,0,0,0,2.36-2.59l-3.24-2.95a9.66,9.66,0,0,1-3.12-7.06l0-6.87v0a16.24,16.24,0,0,0-4.29-10.6,1.14,1.14,0,0,0-.16-.15L117.5,50A4.11,4.11,0,0,0,112,56l18.13,18.13a1.09,1.09,0,0,1,0,1.55l-.89.89L109,56.38a1.73,1.73,0,0,0-2.47,0,1.75,1.75,0,0,0,0,2.47l20.21,20.21-1.31,1.31L105.2,60.16a1.75,1.75,0,0,0-2.47,0,1.73,1.73,0,0,0,0,2.47l20.2,20.21-.89.89a1.09,1.09,0,0,1-1.55,0L102.36,65.6a4.11,4.11,0,0,0-6,5.55l20,23.76a1.14,1.14,0,0,0,.15.16Zm0,0"/></g></svg>