<svg xmlns="http://www.w3.org/2000/svg" viewBox="0 0 234.71 234.71"><defs><style>.cls-1{fill:#627dfa;}</style></defs><title>i</title><g id="Capa_1" data-name="Capa 1"><path class="cls-1" d="M117.36,0A117.36,117.36,0,1,0,234.71,117.36,117.49,117.49,0,0,0,117.36,0Zm0,207.08a89.73,89.73,0,1,1,89.72-89.72,89.83,89.83,0,0,1-89.72,89.72Zm0,0"/><path class="cls-1" d="M152,76.13,97.5,130.63,82.7,115.84a13.82,13.82,0,0,0-19.54,19.54l24.57,24.56a13.81,13.81,0,0,0,19.54,0l64.28-64.28A13.81,13.81,0,0,0,152,76.13Zm0,0"/></g></svg>