<svg xmlns="http://www.w3.org/2000/svg" viewBox="0 0 401.41 340.76"><defs><style>.cls-1{fill:#627dfa;}</style></defs><title>i</title><g id="Capa_1" data-name="Capa 1"><path class="cls-1" d="M46.83,340.76c-11.37,0-20.07-7.38-20.07-17V221.5c0-3.41,2.68-5.68,6.69-5.68H60.21c4,0,6.69,2.27,6.69,5.68V323.72C66.9,333.38,58.2,340.76,46.83,340.76ZM40.14,227.17v96.55c0,3.41,2.68,5.68,6.69,5.68s6.69-2.27,6.69-5.68V227.17Z"/><path class="cls-1" d="M354.58,340.76c-11.38,0-20.07-7.38-20.07-17V221.5c0-3.41,2.67-5.68,6.69-5.68H368c4,0,6.69,2.27,6.69,5.68V323.72C374.65,333.38,366,340.76,354.58,340.76Zm-6.69-113.59v96.55c0,3.41,2.67,5.68,6.69,5.68s6.69-2.27,6.69-5.68V227.17Z"/><path class="cls-1" d="M66.9,62.47c-14.72,0-26.76-10.22-26.76-22.71S52.18,17,66.9,17,93.66,27.26,93.66,39.76,81.62,62.47,66.9,62.47Zm0-34.07c-7.36,0-13.38,5.11-13.38,11.36s6,11.35,13.38,11.35S80.28,46,80.28,39.76,74.26,28.4,66.9,28.4Z"/><path class="cls-1" d="M133.8,62.47C119.08,62.47,107,52.25,107,39.76S119.08,17,133.8,17s26.76,10.22,26.76,22.72S148.52,62.47,133.8,62.47Zm0-34.07c-7.36,0-13.38,5.11-13.38,11.36s6,11.35,13.38,11.35S147.18,46,147.18,39.76,141.16,28.4,133.8,28.4Z"/><path class="cls-1" d="M200.7,62.47c-14.71,0-26.76-10.22-26.76-22.71S186,17,200.7,17s26.76,10.22,26.76,22.72S215.42,62.47,200.7,62.47Zm0-34.07c-7.36,0-13.38,5.11-13.38,11.36s6,11.35,13.38,11.35S214.08,46,214.08,39.76,208.06,28.4,200.7,28.4Z"/><path class="cls-1" d="M267.61,62.47c-14.72,0-26.77-10.22-26.77-22.71S252.89,17,267.61,17s26.76,10.22,26.76,22.72S282.32,62.47,267.61,62.47Zm0-34.07c-7.36,0-13.38,5.11-13.38,11.36s6,11.35,13.38,11.35S281,46,281,39.76,275,28.4,267.61,28.4Z"/><path class="cls-1" d="M334.51,62.47c-14.72,0-26.76-10.22-26.76-22.71S319.79,17,334.51,17s26.76,10.22,26.76,22.72S349.22,62.47,334.51,62.47Zm0-34.07c-7.36,0-13.38,5.11-13.38,11.36s6,11.35,13.38,11.35S347.89,46,347.89,39.76,341.87,28.4,334.51,28.4Z"/><path class="cls-1" d="M66.9,119.27c-14.72,0-26.76-10.23-26.76-22.72s12-22.72,26.76-22.72S93.66,84.05,93.66,96.55,81.62,119.27,66.9,119.27Zm0-34.08c-7.36,0-13.38,5.11-13.38,11.36s6,11.36,13.38,11.36,13.38-5.11,13.38-11.36S74.26,85.19,66.9,85.19Z"/><path class="cls-1" d="M66.9,176.06c-14.72,0-26.76-10.22-26.76-22.72s12-22.71,26.76-22.71,26.76,10.22,26.76,22.71S81.62,176.06,66.9,176.06Zm0-34.08c-7.36,0-13.38,5.12-13.38,11.36s6,11.36,13.38,11.36,13.38-5.11,13.38-11.36S74.26,142,66.9,142Z"/><path class="cls-1" d="M334.51,119.27c-14.72,0-26.76-10.23-26.76-22.72s12-22.72,26.76-22.72,26.76,10.22,26.76,22.72S349.22,119.27,334.51,119.27Zm0-34.08c-7.36,0-13.38,5.11-13.38,11.36s6,11.36,13.38,11.36,13.38-5.11,13.38-11.36S341.87,85.19,334.51,85.19Z"/><path class="cls-1" d="M334.51,176.06c-14.72,0-26.76-10.22-26.76-22.72s12-22.71,26.76-22.71,26.76,10.22,26.76,22.71S349.22,176.06,334.51,176.06Zm0-34.08c-7.36,0-13.38,5.12-13.38,11.36s6,11.36,13.38,11.36,13.38-5.11,13.38-11.36S341.87,142,334.51,142Z"/><path class="cls-1" d="M247.53,261.25H153.87a6.81,6.81,0,0,1-6.69-5.11l-8-73.83c-1.33-14.77,4-29,16.06-40.33,11.37-10.79,28.1-17,45.49-17s34.12,6.24,45.5,17,17.39,25.56,16.05,40.33l-8,73.83A6.82,6.82,0,0,1,247.53,261.25Zm-87.64-11.36h81.62l7.36-68.72c1.34-11.36-3.34-22.72-12.71-31.23-8.7-8.52-22.08-13.64-35.46-13.64s-26.76,5.12-35.45,13.64a38.45,38.45,0,0,0-12.71,31.23Z"/><path class="cls-1" d="M172.61,185.15a6.8,6.8,0,0,1-6.69-5.11,27.1,27.1,0,0,1,8.69-22.72c6.69-6.25,16.06-9.66,26.09-9.66,4,0,6.69,2.28,6.69,5.68S204.72,159,200.7,159a25.57,25.57,0,0,0-16,5.68c-4,4-6,8.52-5.35,14.2,0,3.41-2.68,5.68-6.69,6.25Z"/><path class="cls-1" d="M247.53,284H153.87c-4,0-6.69-2.27-6.69-5.68V255.57c0-3.41,2.68-5.68,6.69-5.68h93.66c4,0,6.7,2.27,6.7,5.68v22.72C254.23,281.7,251.55,284,247.53,284Zm-87-11.36h80.28V261.25H160.56Z"/><path class="cls-1" d="M153.87,340.76c-4,0-6.69-2.27-6.69-5.68V278.29c0-3.41,2.68-5.68,6.69-5.68s6.69,2.27,6.69,5.68v56.79C160.56,338.49,157.89,340.76,153.87,340.76Z"/><path class="cls-1" d="M247.53,340.76c-4,0-6.69-2.27-6.69-5.68V278.29c0-3.41,2.68-5.68,6.69-5.68s6.7,2.27,6.7,5.68v56.79C254.23,338.49,251.55,340.76,247.53,340.76Z"/><path class="cls-1" d="M294.37,193.1H254.89a6.62,6.62,0,0,1-4.68-1.71,5.92,5.92,0,0,1-2-4.54l.67-5.68c1.34-11.36-3.34-22.72-12.71-31.23-8.7-8.52-22.08-13.64-35.46-13.64s-26.76,5.12-35.45,13.64a38.45,38.45,0,0,0-12.71,31.23l.66,5.68a5.91,5.91,0,0,1-2,4.54,7.93,7.93,0,0,1-4.69,1.71H107c-4,0-6.69-2.27-6.69-5.68V73.83c0-3.41,2.68-5.68,6.69-5.68H294.37c4,0,6.69,2.27,6.69,5.68V187.42C301.06,190.83,298.38,193.1,294.37,193.1Zm-32.12-11.36h25.43V79.51H113.73V181.74h25.42c-1.33-14.77,4-29,16.06-39.76,11.37-10.79,28.1-17,45.49-17s34.12,6.24,45.5,17S263.59,167,262.25,181.74Z"/><path class="cls-1" d="M374.65,193.1H254.89a6.62,6.62,0,0,1-4.68-1.71,5.92,5.92,0,0,1-2-4.54l.67-5.68c1.34-11.36-3.34-22.72-12.71-31.23-8.7-8.52-22.08-13.64-35.46-13.64s-26.76,5.12-35.45,13.64a38.45,38.45,0,0,0-12.71,31.23l.66,5.68a5.91,5.91,0,0,1-2,4.54,7.93,7.93,0,0,1-4.69,1.71H26.76c-4,0-6.69-2.27-6.69-5.68V34.08C20.07,15.33,38.13,0,60.21,0h281c22.07,0,40.14,15.33,40.14,34.08V187.42C381.34,190.83,378.66,193.1,374.65,193.1Zm-112.4-11.36H368V34.08c0-12.5-12-22.72-26.76-22.72h-281c-14.72,0-26.76,10.22-26.76,22.72V181.74h105.7c-1.33-14.77,4-29,16.06-39.76,11.37-10.79,28.1-17,45.49-17s34.12,6.24,45.5,17S263.59,167,262.25,181.74Z"/><path class="cls-1" d="M150.53,227.17H26.76C12,227.17,0,217,0,204.46s12-22.72,26.76-22.72H146.51a6.8,6.8,0,0,1,6.69,5.11l3.35,34.08a5.93,5.93,0,0,1-2,4.54C153.87,226.61,151.87,227.17,150.53,227.17ZM26.76,193.1c-7.36,0-13.38,5.11-13.38,11.36s6,11.36,13.38,11.36H143.17l-2.68-22.72Z"/><path class="cls-1" d="M374.65,227.17H250.88a6.58,6.58,0,0,1-4.68-1.7,5.93,5.93,0,0,1-2-4.54l3.34-34.08c0-2.84,3.35-5.11,6.7-5.11H374.65c14.72,0,26.76,10.22,26.76,22.72S389.37,227.17,374.65,227.17ZM258.24,215.82H374.65c7.36,0,13.38-5.12,13.38-11.36s-6-11.36-13.38-11.36H260.92Z"/></g></svg>