<svg xmlns="http://www.w3.org/2000/svg" viewBox="0 0 384 385.11"><defs><style>.cls-1{fill:#627dfa;}</style></defs><title>i</title><g id="Capa_1" data-name="Capa 1"><path class="cls-1" d="M315.3,0H68.69A68.78,68.78,0,0,0,0,68.7V315.3A68.78,68.78,0,0,0,68.69,384H315.3A68.78,68.78,0,0,0,384,315.3V68.7A68.78,68.78,0,0,0,315.3,0Zm46.2,315.3a46.25,46.25,0,0,1-46.2,46.2H68.69A46.24,46.24,0,0,1,22.5,315.3V68.7A46.24,46.24,0,0,1,68.69,22.5H315.3a46.25,46.25,0,0,1,46.2,46.2Zm0,0"/><path class="cls-1" d="M324.55,84.35H153.2a35.34,35.34,0,0,0-67,0H59.45a11.25,11.25,0,0,0,0,22.5H86.19a35.34,35.34,0,0,0,67,0H324.55a11.25,11.25,0,0,0,0-22.5ZM119.7,108.45A12.85,12.85,0,1,1,132.55,95.6a12.87,12.87,0,0,1-12.85,12.85Zm0,0"/><path class="cls-1" d="M324.55,180.75H297.8a35.33,35.33,0,0,0-67,0H59.45a11.25,11.25,0,1,0,0,22.5H230.8a35.33,35.33,0,0,0,67,0h26.75a11.25,11.25,0,0,0,0-22.5Zm-60.25,24.1A12.85,12.85,0,1,1,277.15,192a12.86,12.86,0,0,1-12.85,12.85Zm0,0"/><path class="cls-1" d="M324.55,277.15H201.4a35.33,35.33,0,0,0-67,0H59.45a11.25,11.25,0,1,0,0,22.5h75a35.33,35.33,0,0,0,67,0H324.55a11.25,11.25,0,1,0,0-22.5ZM167.9,301.25a12.85,12.85,0,1,1,12.85-12.85,12.87,12.87,0,0,1-12.85,12.85Zm0,0"/></g></svg>