<svg xmlns="http://www.w3.org/2000/svg" viewBox="0 0 378.18 359.46"><defs><style>.cls-1{fill:#fff;}</style></defs><title>i</title><g id="Capa_1" data-name="Capa 1"><path class="cls-1" d="M320.54,359.46h-93a11.12,11.12,0,0,1-11.12-11.12V254.28H161.76v94.06a11.12,11.12,0,0,1-11.12,11.12h-93a11.12,11.12,0,0,1-11.12-11.12V193.43H19.41A19.4,19.4,0,0,1,6.35,159.7L176,5.09a19.29,19.29,0,0,1,26.12,0l38.59,35.16V34.06a11.12,11.12,0,0,1,11.12-11.12h76.9a11.12,11.12,0,0,1,11.12,11.12v96.53l31.95,29.11a19.39,19.39,0,0,1-13.06,33.73H331.66V348.34A11.11,11.11,0,0,1,320.54,359.46Zm-81.88-22.24h70.76V182.31a11.12,11.12,0,0,1,11.12-11.12h30.87l-30.14-27.47a11.12,11.12,0,0,1-3.63-8.22V45.18H263V65.43a11.12,11.12,0,0,1-18.61,8.22L189.09,23.28,26.77,171.19H57.63a11.12,11.12,0,0,1,11.13,11.12V337.22h70.76V243.16A11.12,11.12,0,0,1,150.64,232h76.9a11.12,11.12,0,0,1,11.13,11.12v94.06Z"/></g></svg>