<svg xmlns="http://www.w3.org/2000/svg" viewBox="0 0 333.66 269.38"><defs><style>.cls-1{fill:#627dfa;}</style></defs><title>i</title><g id="Capa_1" data-name="Capa 1"><path class="cls-1" d="M317,93.72H295.17a16.56,16.56,0,0,0-13.42,6.87A26,26,0,0,0,265.54,95H216.22a46.31,46.31,0,0,0-30.55-35.36,30,30,0,0,0,7.18-19.51V29.6a30.15,30.15,0,0,0-60.3,0V40.08a30,30,0,0,0,7.19,19.5,46.19,46.19,0,0,0-27.05,24.31h-7.45A23.26,23.26,0,0,0,85.45,95H66.2A26,26,0,0,0,50,100.59a16.55,16.55,0,0,0-13.42-6.87H14.73A16.67,16.67,0,0,0-1.92,110.37V139a6.56,6.56,0,0,0,13.11,0V110.37a3.54,3.54,0,0,1,3.54-3.54H36.57A3.47,3.47,0,0,1,40,110.29v116.3a3.47,3.47,0,0,1-3.46,3.46H14.73a3.53,3.53,0,0,1-3.54-3.54V197.94a6.56,6.56,0,1,0-13.11,0v28.57a16.67,16.67,0,0,0,16.65,16.65H24.3v19.67a6.55,6.55,0,0,0,6.55,6.55H62.31a6.56,6.56,0,0,0,6.56-6.55V243.16H91.48v4.29a21.91,21.91,0,0,0,37.29,15.62,21.91,21.91,0,0,0,37.3-15.62v-4.29h96.81v19.67a6.55,6.55,0,0,0,6.55,6.55h31.46a6.56,6.56,0,0,0,6.56-6.55V243.16H317a16.67,16.67,0,0,0,16.64-16.65V110.37A16.67,16.67,0,0,0,317,93.72Zm-38.41,27.4v42.62a12.92,12.92,0,0,1-12.91,12.9H208.4A36.47,36.47,0,0,0,217,153.1v-45h48.54a13.08,13.08,0,0,1,13.07,13.06Zm-133-91.52a17,17,0,0,1,34.08,0V40.08a17,17,0,1,1-34.08,0Zm8.93,40.63h16.23a33.11,33.11,0,0,1,33.07,33.07v41.76H181.6V132h2.62a6.56,6.56,0,1,0,0-13.11H181.6V107.16a23.29,23.29,0,0,0-23.27-23.27H127.81a33.1,33.1,0,0,1,26.78-13.66ZM105.24,97h53.09a10.17,10.17,0,0,1,10.16,10.16v37.9H95.08v-37.9A10.17,10.17,0,0,1,105.24,97Zm-39,11.06H82v43.56a6.56,6.56,0,0,0,6.56,6.55H97.2a30.85,30.85,0,0,0-5.72,17.93v.54H66a12.92,12.92,0,0,1-12.9-12.9V121.12A13.08,13.08,0,0,1,66.2,108.06ZM55.76,256.27H37.4V243.16H55.76Zm6.56-26.22a9.18,9.18,0,0,1-9.18-9.18V199.06a9.32,9.32,0,0,1,9.3-9.31h29v40.3Zm51.08,26.22a8.83,8.83,0,0,1-8.82-8.82V176.1a18,18,0,0,1,17.93-17.93h5.43a30.85,30.85,0,0,0-5.72,17.93v71.35a8.83,8.83,0,0,1-8.82,8.82ZM153,247.45a8.82,8.82,0,1,1-17.63,0V176.1a18,18,0,0,1,17.92-17.93h50.08a23.59,23.59,0,0,1-23,18.47H159.52A6.56,6.56,0,0,0,153,183.2Zm13.11-57.7H269.3a9.33,9.33,0,0,1,9.31,9.31v21.81a9.19,9.19,0,0,1-9.18,9.18H166.07v-40.3Zm128.27,66.52H276V243.16h18.35Zm26.22-29.76a3.54,3.54,0,0,1-3.54,3.54H295.17a3.46,3.46,0,0,1-3.45-3.46V110.29a3.46,3.46,0,0,1,3.45-3.46H317a3.55,3.55,0,0,1,3.54,3.54Zm0,0"/><path class="cls-1" d="M4.63,175A6.56,6.56,0,1,0,0,163.81,6.56,6.56,0,0,0,4.63,175Zm0,0"/></g></svg>