<svg xmlns="http://www.w3.org/2000/svg" xmlns:xlink="http://www.w3.org/1999/xlink" viewBox="0 0 375.84 263.76"><defs><style>.cls-1{fill:none;}.cls-2{fill:#627dfa;}.cls-3{clip-path:url(#clip-path);}</style><clipPath id="clip-path"><rect class="cls-1" width="375.84" height="263.76"/></clipPath></defs><title>i</title><g id="Capa_1" data-name="Capa 1"><path class="cls-2" d="M100.94,230.8a28,28,0,1,0-28-28,28,28,0,0,0,28,28Zm0-44a16,16,0,1,1-16,16,16,16,0,0,1,16-16Zm0,0"/><path class="cls-2" d="M275.05,174.8a28,28,0,1,0,28,28,28,28,0,0,0-28-28Zm0,44a16,16,0,1,1,16-16,16,16,0,0,1-16,16Zm0,0"/><g class="cls-3"><path class="cls-2" d="M110,36.48h19a6,6,0,1,0,0-12H110c-8.34,0-21.63,5.74-27.34,11.81L34.59,87.37A6,6,0,0,0,39,97.48H271.18A6,6,0,0,0,276.61,89L251.93,35.86c-2.65-5.64-11.7-11.38-17.93-11.38H153a6,6,0,0,0-6,6v55H52.84l38.56-41c3.39-3.61,13.65-8,18.6-8Zm49,0h75c1.77.08,6.28,2.94,7.08,4.46l20.71,44.54H159Zm0,0"/><path class="cls-2" d="M376,149.79c0-21.3-16.45-44.12-36.66-50.86l-28.06-9.35c-4.68-1.56-10.86-7-13-11.51L273.65,25.64C267,11.53,249.59.48,234,.48H110C95.09.48,75.4,9,65.18,19.84L9.85,78.63C4.33,84.5,0,95.42,0,103.48V178.8a30,30,0,0,0,30,30H41.25a60,60,0,0,0,119.4,0h36.4a6,6,0,0,0,0-12h-36.4a60,60,0,0,0-119.4,0H30a18,18,0,0,1-18-18V103.48c0-5,3.14-13,6.59-16.63L73.92,28.07c8-8.46,24.47-15.59,36.08-15.59H234c10.95,0,24.13,8.37,28.79,18.27l24.67,52.43c3.54,7.51,12.14,15.16,20,17.79l22.8,7.6a39.8,39.8,0,0,0-.6,6.91A40.37,40.37,0,0,0,364,155.35V178.8c0,9.92-6.69,18-14.91,18H334.75a60,60,0,1,0,0,12h14.34c14.84,0,26.91-13.46,26.91-30Zm-275.06,5a48,48,0,1,1-48,48,48.05,48.05,0,0,1,48-48Zm174.11,96a48,48,0,1,1,48-48,48.06,48.06,0,0,1-48,48Zm66.64-135.32q0-1.17.09-2.31A47.11,47.11,0,0,1,363.27,143a28.36,28.36,0,0,1-21.58-27.5Zm0,0"/></g></g></svg>