<svg xmlns="http://www.w3.org/2000/svg" viewBox="0 0 401.42 470.9"><defs><style>.cls-1{fill:#627dfa;}</style></defs><title>i</title><g id="Capa_1" data-name="Capa 1"><path class="cls-1" d="M400.53,127.77v-.37c-.21-4.52-.35-9.31-.43-14.63a49.91,49.91,0,0,0-47-48.9c-54.14-3-96-20.67-131.81-55.55L221,8a30.12,30.12,0,0,0-41,0l-.3.29C143.93,43.2,102.05,60.85,47.91,63.88a49.89,49.89,0,0,0-47,48.89C.84,118.06.7,122.84.49,127.4l0,.85c-1,55.21-2.36,123.92,20.63,186.29,12.64,34.29,31.78,64.1,56.89,88.61C106.58,431.06,144,453.21,189.32,469a34.4,34.4,0,0,0,4.56,1.24A33.94,33.94,0,0,0,211.71,469c45.22-15.81,82.64-38,111.21-65.88,25.1-24.52,44.24-54.34,56.89-88.64,23.07-62.55,21.77-131.39,20.72-186.7ZM353.89,304.91c-24.25,65.73-73.74,110.87-151.3,138a7.53,7.53,0,0,1-.88.24,6.36,6.36,0,0,1-2.42,0,6.88,6.88,0,0,1-.87-.23C120.77,415.83,71.25,370.72,47,305,25.84,247.5,27,184.42,28.1,128.78v-.31c.21-4.78.35-9.79.43-15.29A22.19,22.19,0,0,1,49.45,91.47c30.64-1.71,57.55-7.63,82.29-18.1s46.63-25.2,67-45.06a2.56,2.56,0,0,1,3.42,0c20.43,19.86,42.36,34.6,67.06,45.06s51.65,16.39,82.29,18.1a22.17,22.17,0,0,1,20.9,21.71c.09,5.53.23,10.54.44,15.29,1.06,55.71,2.23,118.83-19,176.44Zm0,0"/><path class="cls-1" d="M200.5,118.1A117.36,117.36,0,1,0,317.85,235.46,117.5,117.5,0,0,0,200.5,118.1Zm0,207.08a89.73,89.73,0,1,1,89.72-89.72,89.83,89.83,0,0,1-89.72,89.72Zm0,0"/><path class="cls-1" d="M234.22,199l-54.5,54.51-14.8-14.79a13.81,13.81,0,1,0-19.54,19.53L170,282.84a13.8,13.8,0,0,0,19.53,0l64.28-64.28A13.82,13.82,0,0,0,234.22,199Zm0,0"/></g></svg>