<svg xmlns="http://www.w3.org/2000/svg" viewBox="0 0 372.58 372.75"><defs><style>.cls-1{fill:#fff;}</style></defs><title>i</title><g id="Capa_1" data-name="Capa 1"><path class="cls-1" d="M47.06,199.58a109.36,109.36,0,0,1,12-135.28C94.85,26.8,149.82,21,190.49,43.63a7.28,7.28,0,1,1-7.07,12.73c-37.19-20.67-84-13.27-113.79,18A94.84,94.84,0,0,0,59.21,191.56c32.76,49.75,103.5,57.25,145.91,14.83C233.7,177.82,242,131.75,221.33,94.25a7.28,7.28,0,0,1,12.76-7c.44.81,1.24,2.32,2,3.87h0a109.33,109.33,0,0,1-20.68,125.57C166.55,265.55,84.93,257.09,47.06,199.58Z"/><path class="cls-1" d="M272.9,243.29l-22.68-22.67A138.33,138.33,0,0,0,236,41.71c-53.92-53.92-141.65-53.91-195.57,0s-53.91,141.64,0,195.56a138.32,138.32,0,0,0,178.91,14.22L242,274.17A21.83,21.83,0,0,0,246.29,299l64.16,64.15a36.39,36.39,0,1,0,51.46-51.46l-64.15-64.16A21.85,21.85,0,0,0,272.9,243.29ZM241,232l20.72,20.72L251.44,263l-20.72-20.73c1.8-1.63,3.57-3.3,5.28-5S239.38,233.79,241,232Zm15.57,46.45,20.59-20.59a7.3,7.3,0,0,1,10.29,0L351.62,322a21.83,21.83,0,0,1-30.87,30.87l-64.17-64.16A7.3,7.3,0,0,1,256.58,278.44ZM225.71,227a123.73,123.73,0,1,1,0-175A123.54,123.54,0,0,1,225.71,227Z"/><path class="cls-1" d="M215.23,72.77a7.28,7.28,0,0,1-10.29-10.29,1.07,1.07,0,0,1,.18-.19,7.28,7.28,0,0,1,10.3,10.3Z"/></g></svg>