<svg xmlns="http://www.w3.org/2000/svg" viewBox="0 0 380.16 364.32"><defs><style>.cls-1{fill:#627dfa;}</style></defs><title>i</title><g id="Capa_1" data-name="Capa 1"><path class="cls-1" d="M379.17,137.67a20.16,20.16,0,0,0-17.39-13.89l-109.73-10L208.66,12.26a20.2,20.2,0,0,0-37.16,0L128.12,113.81l-109.75,10A20.22,20.22,0,0,0,6.9,159.13l82.94,72.74L65.39,339.61a20.18,20.18,0,0,0,30.05,21.83l94.64-56.57,94.62,56.57a20.2,20.2,0,0,0,30.06-21.83L290.31,231.87l82.94-72.72a20.22,20.22,0,0,0,5.92-21.48Z"/></g></svg>