<svg xmlns="http://www.w3.org/2000/svg" viewBox="0 0 879.26 268.33"><defs><style>.cls-1{fill:#fff;}.cls-2{fill:#778dc1;}.cls-3{fill:#5c6caa;}</style></defs><title>LOGO_ho</title><g id="Capa_1" data-name="Capa 1"><path class="cls-1" d="M353.64,223.33h-3.82v9.07h-6.15V207.15h10c6.18,0,9.27,3.49,9.27,8.13C362.91,219.45,360.07,223.33,353.64,223.33Zm-.47-4.89c2.44,0,3.49-1.22,3.49-3.16s-1.05-3.17-3.49-3.17h-3.35v6.33Z"/><path class="cls-1" d="M381.12,207.15c6.18,0,9.28,3.56,9.28,7.95a7.35,7.35,0,0,1-5.62,7.3l5.83,10h-6.94l-5.25-9.54h-1.48v9.54h-6.15V207.15Zm-.36,5.1h-3.82v6.26h3.82c2.3,0,3.38-1.18,3.38-3.16S383.06,212.25,380.76,212.25Z"/><path class="cls-1" d="M410.86,232.65a12.93,12.93,0,1,1,12.92-13A12.7,12.7,0,0,1,410.86,232.65Zm0-5.61c4,0,6.66-2.92,6.66-7.34s-2.63-7.34-6.66-7.34-6.69,2.84-6.69,7.34S406.76,227,410.86,227Z"/><path class="cls-1" d="M454.57,219.77c0,7.48-5.18,12.63-13.24,12.63h-9.46V207.15h9.46C449.39,207.15,454.57,212.25,454.57,219.77Zm-13.64,7.3c4.64,0,7.38-2.66,7.38-7.3s-2.74-7.37-7.38-7.37H438v14.67Z"/><path class="cls-1" d="M462.59,207.15h6.15v15.1c0,3,1.47,4.71,4.39,4.71s4.46-1.72,4.46-4.71v-15.1h6.15v15.07c0,7-4.89,10.43-10.72,10.43s-10.43-3.46-10.43-10.43Z"/><path class="cls-1" d="M504.38,206.86c6,0,10.54,3.38,12,8.85H509.6a5.56,5.56,0,0,0-5.29-3.24c-3.77,0-6.36,2.81-6.36,7.27s2.59,7.26,6.36,7.26a5.56,5.56,0,0,0,5.29-3.24h6.76c-1.44,5.47-6,8.82-12,8.82-7.44,0-12.69-5.29-12.69-12.84S496.94,206.86,504.38,206.86Z"/><path class="cls-1" d="M523.45,207.15H543v4.93h-6.69V232.4h-6.15V212.08h-6.69Z"/><path class="cls-1" d="M550.75,207.15h6.15V232.4h-6.15Z"/><path class="cls-1" d="M578,232.65a12.93,12.93,0,1,1,12.91-13A12.7,12.7,0,0,1,578,232.65Zm0-5.61c4,0,6.65-2.92,6.65-7.34s-2.62-7.34-6.65-7.34-6.69,2.84-6.69,7.34S573.88,227,578,227Z"/><path class="cls-1" d="M621.57,207.15V232.4h-6.15l-10.28-15.58V232.4H599V207.15h6.15l10.28,15.64V207.15Z"/><path class="cls-1" d="M664.45,232.65c-5.43,0-9.67-2.7-9.85-7.81h6.54a2.9,2.9,0,0,0,3.13,2.88c1.8,0,3-.9,3-2.37,0-4.68-12.62-2.16-12.55-11.12,0-4.78,3.92-7.44,9.2-7.44,5.51,0,9.21,2.73,9.46,7.55h-6.65a2.72,2.72,0,0,0-2.91-2.62,2.23,2.23,0,0,0-2.59,2.3c0,4.39,12.48,2.41,12.48,10.86C673.66,229.12,670.35,232.65,664.45,232.65Z"/><path class="cls-1" d="M697.58,212.08h-9.32v5.1h8.24v4.75h-8.24v5.54h9.32v4.93H682.11V207.15h15.47Z"/><path class="cls-1" d="M716.57,207.15c6.19,0,9.28,3.56,9.28,7.95a7.36,7.36,0,0,1-5.61,7.3l5.83,10h-7l-5.25-9.54H712.4v9.54h-6.15V207.15Zm-.36,5.1H712.4v6.26h3.81c2.3,0,3.38-1.18,3.38-3.16S718.51,212.25,716.21,212.25Z"/><path class="cls-1" d="M751.57,207.15h6.51l-9,25.25h-7.69l-9-25.25H739l6.25,19.06Z"/><path class="cls-1" d="M765.31,207.15h6.15V232.4h-6.15Z"/><path class="cls-1" d="M792.25,206.86c6,0,10.54,3.38,12,8.85h-6.76a5.57,5.57,0,0,0-5.29-3.24c-3.78,0-6.37,2.81-6.37,7.27s2.59,7.26,6.37,7.26a5.57,5.57,0,0,0,5.29-3.24h6.76c-1.44,5.47-6,8.82-12,8.82-7.44,0-12.7-5.29-12.7-12.84S784.81,206.86,792.25,206.86Z"/><path class="cls-1" d="M828.15,212.08h-9.32v5.1h8.24v4.75h-8.24v5.54h9.32v4.93H812.68V207.15h15.47Z"/><path class="cls-1" d="M846,232.65c-5.43,0-9.67-2.7-9.85-7.81h6.54a2.91,2.91,0,0,0,3.13,2.88c1.8,0,3-.9,3-2.37,0-4.68-12.62-2.16-12.55-11.12,0-4.78,3.92-7.44,9.21-7.44,5.5,0,9.21,2.73,9.46,7.55h-6.66a2.72,2.72,0,0,0-2.91-2.62,2.23,2.23,0,0,0-2.59,2.3c0,4.39,12.48,2.41,12.48,10.86C855.16,229.12,851.85,232.65,846,232.65Z"/><path class="cls-2" d="M104,264.94l82-82a71.22,71.22,0,0,0,0-100.73l43-42.95A134.18,134.18,0,0,1,104,264.94Z"/><path class="cls-1" d="M161.77,106.67a39,39,0,1,0-.22,55.21A39.05,39.05,0,0,0,161.77,106.67Z"/><path class="cls-3" d="M182.86,82.24a71,71,0,0,0-52.59-20.82,30.19,30.19,0,0,1-22.39-8.65l-.75-.75C88.5,33.38,100.8,1.53,127.12.18a134.17,134.17,0,0,1,137.71,164s-41.91,0-43.92-21.09c-1.69-17.76-22.44-45.26-22.44-45.26Z"/><path class="cls-3" d="M82.14,183l51.92,51.93,14.57,14.56,15.48,15.48A134.18,134.18,0,0,1,.07,127.22c1.36-26.32,33.21-38.62,51.85-20l.75.76a30.16,30.16,0,0,1,8.64,22.38A71,71,0,0,0,82.14,183Z"/><path class="cls-1" d="M359.12,63.84v81.5h32v18.87H334.67V63.84Z"/><path class="cls-1" d="M439.19,165.36c-23.45,0-41.18-15.73-41.18-41s18.16-41,41.46-41,41.47,15.73,41.47,41S462.64,165.36,439.19,165.36Zm0-21.16c8.72,0,16.87-6.44,16.87-19.88s-8-19.87-16.59-19.87c-8.86,0-16.58,6.29-16.58,19.87S430.32,144.2,439.19,144.2Z"/><path class="cls-1" d="M529.12,83.29c20,0,34.17,11,38.32,30h-26c-2-5.57-6-9.15-12.73-9.15C520,104.16,514,111,514,124.32s6,20.16,14.72,20.16c6.72,0,10.58-3.29,12.73-9.15h26c-4.15,18.45-18.3,30-38.32,30-23.44,0-40-15.73-40-41C489.09,99.16,505.68,83.29,529.12,83.29Z"/><path class="cls-1" d="M580.46,63.84h65.33V83.43H604.9v21.16h30.6v19H604.9v40.6H580.46Z"/><path class="cls-1" d="M656.38,63c0-7.44,5.86-13.3,14.58-13.3S685.4,55.55,685.4,63c0,7.29-5.86,13.15-14.44,13.15S656.38,70.28,656.38,63Zm2.29,21.44h24.44v79.78H658.67Z"/><path class="cls-1" d="M700.84,58.41h24.45v105.8H700.84Z"/><path class="cls-1" d="M853,120.89c0-10.44-6-16.15-15.3-16.15s-15.29,5.71-15.29,16.15v43.32H798.07V120.89c0-10.44-6-16.15-15.3-16.15s-15.3,5.71-15.3,16.15v43.32H743V84.43h24.45v10c4.72-6.43,12.87-10.86,23.31-10.86,12,0,21.73,5.29,27.16,14.86a32.1,32.1,0,0,1,26.88-14.86c19.73,0,32.46,12.58,32.46,34v46.61H853Z"/></g></svg>